<?xml version="1.0" encoding="utf-8" standalone="no"?>
<!DOCTYPE svg PUBLIC "-//W3C//DTD SVG 1.1//EN"
  "http://www.w3.org/Graphics/SVG/1.1/DTD/svg11.dtd">
<svg xmlns:xlink="http://www.w3.org/1999/xlink" width="1152pt" height="576pt" viewBox="0 0 1152 576" xmlns="http://www.w3.org/2000/svg" version="1.1">
 <metadata>
  <rdf:RDF xmlns:dc="http://purl.org/dc/elements/1.1/" xmlns:cc="http://creativecommons.org/ns#" xmlns:rdf="http://www.w3.org/1999/02/22-rdf-syntax-ns#">
   <cc:Work>
    <dc:type rdf:resource="http://purl.org/dc/dcmitype/StillImage"/>
    <dc:date>2026-03-18T13:10:28.609941</dc:date>
    <dc:format>image/svg+xml</dc:format>
    <dc:creator>
     <cc:Agent>
      <dc:title>Matplotlib v3.10.8, https://matplotlib.org/</dc:title>
     </cc:Agent>
    </dc:creator>
   </cc:Work>
  </rdf:RDF>
 </metadata>
 <defs>
  <style type="text/css">*{stroke-linejoin: round; stroke-linecap: butt}</style>
 </defs>
 <g id="figure_1">
  <g id="patch_1">
   <path d="M 0 576 
L 1152 576 
L 1152 0 
L 0 0 
z
" style="fill: #ffffff"/>
  </g>
  <g id="axes_1">
   <g id="patch_2">
    <path d="M 72.708053 542.64351 
L 570.24 542.64351 
L 570.24 37.66822 
L 72.708053 37.66822 
z
" style="fill: #ffffff"/>
   </g>
   <g id="patch_3">
    <path d="M 72.708053 60.621642 
L 73.291634 60.621642 
L 73.291634 78.495209 
L 72.708053 78.495209 
z
" clip-path="url(#p334a9ffa0b)" style="fill: #4c78a8"/>
   </g>
   <g id="patch_4">
    <path d="M 72.708053 107.657344 
L 73.236493 107.657344 
L 73.236493 125.53091 
L 72.708053 125.53091 
z
" clip-path="url(#p334a9ffa0b)" style="fill: #4c78a8"/>
   </g>
   <g id="patch_5">
    <path d="M 72.708053 154.693045 
L 73.500273 154.693045 
L 73.500273 172.566612 
L 72.708053 172.566612 
z
" clip-path="url(#p334a9ffa0b)" style="fill: #4c78a8"/>
   </g>
   <g id="patch_6">
    <path d="M 72.708053 201.728746 
L 74.843662 201.728746 
L 74.843662 219.602313 
L 72.708053 219.602313 
z
" clip-path="url(#p334a9ffa0b)" style="fill: #4c78a8"/>
   </g>
   <g id="patch_7">
    <path d="M 72.708053 248.764448 
L 233.822748 248.764448 
L 233.822748 266.638014 
L 72.708053 266.638014 
z
" clip-path="url(#p334a9ffa0b)" style="fill: #4c78a8"/>
   </g>
   <g id="patch_8">
    <path d="M 72.708053 295.800149 
L 233.822748 295.800149 
L 233.822748 313.673716 
L 72.708053 313.673716 
z
" clip-path="url(#p334a9ffa0b)" style="fill: #4c78a8"/>
   </g>
   <g id="patch_9">
    <path d="M 72.708053 342.835851 
L 546.548002 342.835851 
L 546.548002 360.709417 
L 72.708053 360.709417 
z
" clip-path="url(#p334a9ffa0b)" style="fill: #4c78a8"/>
   </g>
   <g id="patch_10">
    <path d="M 72.708053 389.871552 
L 222.485959 389.871552 
L 222.485959 407.745118 
L 72.708053 407.745118 
z
" clip-path="url(#p334a9ffa0b)" style="fill: #4c78a8"/>
   </g>
   <g id="patch_11">
    <path d="M 72.708053 436.907253 
L 130.187229 436.907253 
L 130.187229 454.78082 
L 72.708053 454.78082 
z
" clip-path="url(#p334a9ffa0b)" style="fill: #4c78a8"/>
   </g>
   <g id="patch_12">
    <path d="M 72.708053 483.942955 
L 130.187229 483.942955 
L 130.187229 501.816521 
L 72.708053 501.816521 
z
" clip-path="url(#p334a9ffa0b)" style="fill: #4c78a8"/>
   </g>
   <g id="patch_13">
    <path d="M 72.708053 78.495209 
L 73.199875 78.495209 
L 73.199875 96.368775 
L 72.708053 96.368775 
z
" clip-path="url(#p334a9ffa0b)" style="fill: #f58518"/>
   </g>
   <g id="patch_14">
    <path d="M 72.708053 125.53091 
L 73.054724 125.53091 
L 73.054724 143.404477 
L 72.708053 143.404477 
z
" clip-path="url(#p334a9ffa0b)" style="fill: #f58518"/>
   </g>
   <g id="patch_15">
    <path d="M 72.708053 172.566612 
L 73.386438 172.566612 
L 73.386438 190.440178 
L 72.708053 190.440178 
z
" clip-path="url(#p334a9ffa0b)" style="fill: #f58518"/>
   </g>
   <g id="patch_16">
    <path d="M 72.708053 219.602313 
L 74.167258 219.602313 
L 74.167258 237.475879 
L 72.708053 237.475879 
z
" clip-path="url(#p334a9ffa0b)" style="fill: #f58518"/>
   </g>
   <g id="patch_17">
    <path d="M 72.708053 266.638014 
L 140.063674 266.638014 
L 140.063674 284.511581 
L 72.708053 284.511581 
z
" clip-path="url(#p334a9ffa0b)" style="fill: #f58518"/>
   </g>
   <g id="patch_18">
    <path d="M 72.708053 313.673716 
L 140.063674 313.673716 
L 140.063674 331.547282 
L 72.708053 331.547282 
z
" clip-path="url(#p334a9ffa0b)" style="fill: #f58518"/>
   </g>
   <g id="patch_19">
    <path d="M 72.708053 360.709417 
L 267.375509 360.709417 
L 267.375509 378.582984 
L 72.708053 378.582984 
z
" clip-path="url(#p334a9ffa0b)" style="fill: #f58518"/>
   </g>
   <g id="patch_20">
    <path d="M 72.708053 407.745118 
L 131.825676 407.745118 
L 131.825676 425.618685 
L 72.708053 425.618685 
z
" clip-path="url(#p334a9ffa0b)" style="fill: #f58518"/>
   </g>
   <g id="patch_21">
    <path d="M 72.708053 454.78082 
L 97.693944 454.78082 
L 97.693944 472.654386 
L 72.708053 472.654386 
z
" clip-path="url(#p334a9ffa0b)" style="fill: #f58518"/>
   </g>
   <g id="patch_22">
    <path d="M 72.708053 501.816521 
L 97.693944 501.816521 
L 97.693944 519.690088 
L 72.708053 519.690088 
z
" clip-path="url(#p334a9ffa0b)" style="fill: #f58518"/>
   </g>
   <g id="matplotlib.axis_1">
    <g id="xtick_1">
     <g id="line2d_1">
      <defs>
       <path id="m5dc1c37fea" d="M 0 0 
L 0 3.5 
" style="stroke: #000000; stroke-width: 0.8"/>
      </defs>
      <g>
       <use xlink:href="#m5dc1c37fea" x="72.708053" y="542.64351" style="stroke: #000000; stroke-width: 0.8"/>
      </g>
     </g>
     <g id="text_1">
      <!-- 0 -->
      <g transform="translate(69.526803 557.241948) scale(0.1 -0.1)">
       <defs>
        <path id="DejaVuSans-30" d="M 2034 4250 
Q 1547 4250 1301 3770 
Q 1056 3291 1056 2328 
Q 1056 1369 1301 889 
Q 1547 409 2034 409 
Q 2525 409 2770 889 
Q 3016 1369 3016 2328 
Q 3016 3291 2770 3770 
Q 2525 4250 2034 4250 
z
M 2034 4750 
Q 2819 4750 3233 4129 
Q 3647 3509 3647 2328 
Q 3647 1150 3233 529 
Q 2819 -91 2034 -91 
Q 1250 -91 836 529 
Q 422 1150 422 2328 
Q 422 3509 836 4129 
Q 1250 4750 2034 4750 
z
" transform="scale(0.015625)"/>
       </defs>
       <use xlink:href="#DejaVuSans-30"/>
      </g>
     </g>
    </g>
    <g id="xtick_2">
     <g id="line2d_2">
      <g>
       <use xlink:href="#m5dc1c37fea" x="162.436436" y="542.64351" style="stroke: #000000; stroke-width: 0.8"/>
      </g>
     </g>
     <g id="text_2">
      <!-- 20000 -->
      <g transform="translate(146.530186 557.241948) scale(0.1 -0.1)">
       <defs>
        <path id="DejaVuSans-32" d="M 1228 531 
L 3431 531 
L 3431 0 
L 469 0 
L 469 531 
Q 828 903 1448 1529 
Q 2069 2156 2228 2338 
Q 2531 2678 2651 2914 
Q 2772 3150 2772 3378 
Q 2772 3750 2511 3984 
Q 2250 4219 1831 4219 
Q 1534 4219 1204 4116 
Q 875 4013 500 3803 
L 500 4441 
Q 881 4594 1212 4672 
Q 1544 4750 1819 4750 
Q 2544 4750 2975 4387 
Q 3406 4025 3406 3419 
Q 3406 3131 3298 2873 
Q 3191 2616 2906 2266 
Q 2828 2175 2409 1742 
Q 1991 1309 1228 531 
z
" transform="scale(0.015625)"/>
       </defs>
       <use xlink:href="#DejaVuSans-32"/>
       <use xlink:href="#DejaVuSans-30" transform="translate(63.623047 0)"/>
       <use xlink:href="#DejaVuSans-30" transform="translate(127.246094 0)"/>
       <use xlink:href="#DejaVuSans-30" transform="translate(190.869141 0)"/>
       <use xlink:href="#DejaVuSans-30" transform="translate(254.492188 0)"/>
      </g>
     </g>
    </g>
    <g id="xtick_3">
     <g id="line2d_3">
      <g>
       <use xlink:href="#m5dc1c37fea" x="252.164819" y="542.64351" style="stroke: #000000; stroke-width: 0.8"/>
      </g>
     </g>
     <g id="text_3">
      <!-- 40000 -->
      <g transform="translate(236.258569 557.241948) scale(0.1 -0.1)">
       <defs>
        <path id="DejaVuSans-34" d="M 2419 4116 
L 825 1625 
L 2419 1625 
L 2419 4116 
z
M 2253 4666 
L 3047 4666 
L 3047 1625 
L 3713 1625 
L 3713 1100 
L 3047 1100 
L 3047 0 
L 2419 0 
L 2419 1100 
L 313 1100 
L 313 1709 
L 2253 4666 
z
" transform="scale(0.015625)"/>
       </defs>
       <use xlink:href="#DejaVuSans-34"/>
       <use xlink:href="#DejaVuSans-30" transform="translate(63.623047 0)"/>
       <use xlink:href="#DejaVuSans-30" transform="translate(127.246094 0)"/>
       <use xlink:href="#DejaVuSans-30" transform="translate(190.869141 0)"/>
       <use xlink:href="#DejaVuSans-30" transform="translate(254.492188 0)"/>
      </g>
     </g>
    </g>
    <g id="xtick_4">
     <g id="line2d_4">
      <g>
       <use xlink:href="#m5dc1c37fea" x="341.893203" y="542.64351" style="stroke: #000000; stroke-width: 0.8"/>
      </g>
     </g>
     <g id="text_4">
      <!-- 60000 -->
      <g transform="translate(325.986953 557.241948) scale(0.1 -0.1)">
       <defs>
        <path id="DejaVuSans-36" d="M 2113 2584 
Q 1688 2584 1439 2293 
Q 1191 2003 1191 1497 
Q 1191 994 1439 701 
Q 1688 409 2113 409 
Q 2538 409 2786 701 
Q 3034 994 3034 1497 
Q 3034 2003 2786 2293 
Q 2538 2584 2113 2584 
z
M 3366 4563 
L 3366 3988 
Q 3128 4100 2886 4159 
Q 2644 4219 2406 4219 
Q 1781 4219 1451 3797 
Q 1122 3375 1075 2522 
Q 1259 2794 1537 2939 
Q 1816 3084 2150 3084 
Q 2853 3084 3261 2657 
Q 3669 2231 3669 1497 
Q 3669 778 3244 343 
Q 2819 -91 2113 -91 
Q 1303 -91 875 529 
Q 447 1150 447 2328 
Q 447 3434 972 4092 
Q 1497 4750 2381 4750 
Q 2619 4750 2861 4703 
Q 3103 4656 3366 4563 
z
" transform="scale(0.015625)"/>
       </defs>
       <use xlink:href="#DejaVuSans-36"/>
       <use xlink:href="#DejaVuSans-30" transform="translate(63.623047 0)"/>
       <use xlink:href="#DejaVuSans-30" transform="translate(127.246094 0)"/>
       <use xlink:href="#DejaVuSans-30" transform="translate(190.869141 0)"/>
       <use xlink:href="#DejaVuSans-30" transform="translate(254.492188 0)"/>
      </g>
     </g>
    </g>
    <g id="xtick_5">
     <g id="line2d_5">
      <g>
       <use xlink:href="#m5dc1c37fea" x="431.621586" y="542.64351" style="stroke: #000000; stroke-width: 0.8"/>
      </g>
     </g>
     <g id="text_5">
      <!-- 80000 -->
      <g transform="translate(415.715336 557.241948) scale(0.1 -0.1)">
       <defs>
        <path id="DejaVuSans-38" d="M 2034 2216 
Q 1584 2216 1326 1975 
Q 1069 1734 1069 1313 
Q 1069 891 1326 650 
Q 1584 409 2034 409 
Q 2484 409 2743 651 
Q 3003 894 3003 1313 
Q 3003 1734 2745 1975 
Q 2488 2216 2034 2216 
z
M 1403 2484 
Q 997 2584 770 2862 
Q 544 3141 544 3541 
Q 544 4100 942 4425 
Q 1341 4750 2034 4750 
Q 2731 4750 3128 4425 
Q 3525 4100 3525 3541 
Q 3525 3141 3298 2862 
Q 3072 2584 2669 2484 
Q 3125 2378 3379 2068 
Q 3634 1759 3634 1313 
Q 3634 634 3220 271 
Q 2806 -91 2034 -91 
Q 1263 -91 848 271 
Q 434 634 434 1313 
Q 434 1759 690 2068 
Q 947 2378 1403 2484 
z
M 1172 3481 
Q 1172 3119 1398 2916 
Q 1625 2713 2034 2713 
Q 2441 2713 2670 2916 
Q 2900 3119 2900 3481 
Q 2900 3844 2670 4047 
Q 2441 4250 2034 4250 
Q 1625 4250 1398 4047 
Q 1172 3844 1172 3481 
z
" transform="scale(0.015625)"/>
       </defs>
       <use xlink:href="#DejaVuSans-38"/>
       <use xlink:href="#DejaVuSans-30" transform="translate(63.623047 0)"/>
       <use xlink:href="#DejaVuSans-30" transform="translate(127.246094 0)"/>
       <use xlink:href="#DejaVuSans-30" transform="translate(190.869141 0)"/>
       <use xlink:href="#DejaVuSans-30" transform="translate(254.492188 0)"/>
      </g>
     </g>
    </g>
    <g id="xtick_6">
     <g id="line2d_6">
      <g>
       <use xlink:href="#m5dc1c37fea" x="521.34997" y="542.64351" style="stroke: #000000; stroke-width: 0.8"/>
      </g>
     </g>
     <g id="text_6">
      <!-- 100000 -->
      <g transform="translate(502.26247 557.241948) scale(0.1 -0.1)">
       <defs>
        <path id="DejaVuSans-31" d="M 794 531 
L 1825 531 
L 1825 4091 
L 703 3866 
L 703 4441 
L 1819 4666 
L 2450 4666 
L 2450 531 
L 3481 531 
L 3481 0 
L 794 0 
L 794 531 
z
" transform="scale(0.015625)"/>
       </defs>
       <use xlink:href="#DejaVuSans-31"/>
       <use xlink:href="#DejaVuSans-30" transform="translate(63.623047 0)"/>
       <use xlink:href="#DejaVuSans-30" transform="translate(127.246094 0)"/>
       <use xlink:href="#DejaVuSans-30" transform="translate(190.869141 0)"/>
       <use xlink:href="#DejaVuSans-30" transform="translate(254.492188 0)"/>
       <use xlink:href="#DejaVuSans-30" transform="translate(318.115234 0)"/>
      </g>
     </g>
    </g>
    <g id="text_7">
     <!-- throughput (tok/s) -->
     <g transform="translate(275.833401 570.920072) scale(0.1 -0.1)">
      <defs>
       <path id="DejaVuSans-74" d="M 1172 4494 
L 1172 3500 
L 2356 3500 
L 2356 3053 
L 1172 3053 
L 1172 1153 
Q 1172 725 1289 603 
Q 1406 481 1766 481 
L 2356 481 
L 2356 0 
L 1766 0 
Q 1100 0 847 248 
Q 594 497 594 1153 
L 594 3053 
L 172 3053 
L 172 3500 
L 594 3500 
L 594 4494 
L 1172 4494 
z
" transform="scale(0.015625)"/>
       <path id="DejaVuSans-68" d="M 3513 2113 
L 3513 0 
L 2938 0 
L 2938 2094 
Q 2938 2591 2744 2837 
Q 2550 3084 2163 3084 
Q 1697 3084 1428 2787 
Q 1159 2491 1159 1978 
L 1159 0 
L 581 0 
L 581 4863 
L 1159 4863 
L 1159 2956 
Q 1366 3272 1645 3428 
Q 1925 3584 2291 3584 
Q 2894 3584 3203 3211 
Q 3513 2838 3513 2113 
z
" transform="scale(0.015625)"/>
       <path id="DejaVuSans-72" d="M 2631 2963 
Q 2534 3019 2420 3045 
Q 2306 3072 2169 3072 
Q 1681 3072 1420 2755 
Q 1159 2438 1159 1844 
L 1159 0 
L 581 0 
L 581 3500 
L 1159 3500 
L 1159 2956 
Q 1341 3275 1631 3429 
Q 1922 3584 2338 3584 
Q 2397 3584 2469 3576 
Q 2541 3569 2628 3553 
L 2631 2963 
z
" transform="scale(0.015625)"/>
       <path id="DejaVuSans-6f" d="M 1959 3097 
Q 1497 3097 1228 2736 
Q 959 2375 959 1747 
Q 959 1119 1226 758 
Q 1494 397 1959 397 
Q 2419 397 2687 759 
Q 2956 1122 2956 1747 
Q 2956 2369 2687 2733 
Q 2419 3097 1959 3097 
z
M 1959 3584 
Q 2709 3584 3137 3096 
Q 3566 2609 3566 1747 
Q 3566 888 3137 398 
Q 2709 -91 1959 -91 
Q 1206 -91 779 398 
Q 353 888 353 1747 
Q 353 2609 779 3096 
Q 1206 3584 1959 3584 
z
" transform="scale(0.015625)"/>
       <path id="DejaVuSans-75" d="M 544 1381 
L 544 3500 
L 1119 3500 
L 1119 1403 
Q 1119 906 1312 657 
Q 1506 409 1894 409 
Q 2359 409 2629 706 
Q 2900 1003 2900 1516 
L 2900 3500 
L 3475 3500 
L 3475 0 
L 2900 0 
L 2900 538 
Q 2691 219 2414 64 
Q 2138 -91 1772 -91 
Q 1169 -91 856 284 
Q 544 659 544 1381 
z
M 1991 3584 
L 1991 3584 
z
" transform="scale(0.015625)"/>
       <path id="DejaVuSans-67" d="M 2906 1791 
Q 2906 2416 2648 2759 
Q 2391 3103 1925 3103 
Q 1463 3103 1205 2759 
Q 947 2416 947 1791 
Q 947 1169 1205 825 
Q 1463 481 1925 481 
Q 2391 481 2648 825 
Q 2906 1169 2906 1791 
z
M 3481 434 
Q 3481 -459 3084 -895 
Q 2688 -1331 1869 -1331 
Q 1566 -1331 1297 -1286 
Q 1028 -1241 775 -1147 
L 775 -588 
Q 1028 -725 1275 -790 
Q 1522 -856 1778 -856 
Q 2344 -856 2625 -561 
Q 2906 -266 2906 331 
L 2906 616 
Q 2728 306 2450 153 
Q 2172 0 1784 0 
Q 1141 0 747 490 
Q 353 981 353 1791 
Q 353 2603 747 3093 
Q 1141 3584 1784 3584 
Q 2172 3584 2450 3431 
Q 2728 3278 2906 2969 
L 2906 3500 
L 3481 3500 
L 3481 434 
z
" transform="scale(0.015625)"/>
       <path id="DejaVuSans-70" d="M 1159 525 
L 1159 -1331 
L 581 -1331 
L 581 3500 
L 1159 3500 
L 1159 2969 
Q 1341 3281 1617 3432 
Q 1894 3584 2278 3584 
Q 2916 3584 3314 3078 
Q 3713 2572 3713 1747 
Q 3713 922 3314 415 
Q 2916 -91 2278 -91 
Q 1894 -91 1617 61 
Q 1341 213 1159 525 
z
M 3116 1747 
Q 3116 2381 2855 2742 
Q 2594 3103 2138 3103 
Q 1681 3103 1420 2742 
Q 1159 2381 1159 1747 
Q 1159 1113 1420 752 
Q 1681 391 2138 391 
Q 2594 391 2855 752 
Q 3116 1113 3116 1747 
z
" transform="scale(0.015625)"/>
       <path id="DejaVuSans-20" transform="scale(0.015625)"/>
       <path id="DejaVuSans-28" d="M 1984 4856 
Q 1566 4138 1362 3434 
Q 1159 2731 1159 2009 
Q 1159 1288 1364 580 
Q 1569 -128 1984 -844 
L 1484 -844 
Q 1016 -109 783 600 
Q 550 1309 550 2009 
Q 550 2706 781 3412 
Q 1013 4119 1484 4856 
L 1984 4856 
z
" transform="scale(0.015625)"/>
       <path id="DejaVuSans-6b" d="M 581 4863 
L 1159 4863 
L 1159 1991 
L 2875 3500 
L 3609 3500 
L 1753 1863 
L 3688 0 
L 2938 0 
L 1159 1709 
L 1159 0 
L 581 0 
L 581 4863 
z
" transform="scale(0.015625)"/>
       <path id="DejaVuSans-2f" d="M 1625 4666 
L 2156 4666 
L 531 -594 
L 0 -594 
L 1625 4666 
z
" transform="scale(0.015625)"/>
       <path id="DejaVuSans-73" d="M 2834 3397 
L 2834 2853 
Q 2591 2978 2328 3040 
Q 2066 3103 1784 3103 
Q 1356 3103 1142 2972 
Q 928 2841 928 2578 
Q 928 2378 1081 2264 
Q 1234 2150 1697 2047 
L 1894 2003 
Q 2506 1872 2764 1633 
Q 3022 1394 3022 966 
Q 3022 478 2636 193 
Q 2250 -91 1575 -91 
Q 1294 -91 989 -36 
Q 684 19 347 128 
L 347 722 
Q 666 556 975 473 
Q 1284 391 1588 391 
Q 1994 391 2212 530 
Q 2431 669 2431 922 
Q 2431 1156 2273 1281 
Q 2116 1406 1581 1522 
L 1381 1569 
Q 847 1681 609 1914 
Q 372 2147 372 2553 
Q 372 3047 722 3315 
Q 1072 3584 1716 3584 
Q 2034 3584 2315 3537 
Q 2597 3491 2834 3397 
z
" transform="scale(0.015625)"/>
       <path id="DejaVuSans-29" d="M 513 4856 
L 1013 4856 
Q 1481 4119 1714 3412 
Q 1947 2706 1947 2009 
Q 1947 1309 1714 600 
Q 1481 -109 1013 -844 
L 513 -844 
Q 928 -128 1133 580 
Q 1338 1288 1338 2009 
Q 1338 2731 1133 3434 
Q 928 4138 513 4856 
z
" transform="scale(0.015625)"/>
      </defs>
      <use xlink:href="#DejaVuSans-74"/>
      <use xlink:href="#DejaVuSans-68" transform="translate(39.208984 0)"/>
      <use xlink:href="#DejaVuSans-72" transform="translate(102.587891 0)"/>
      <use xlink:href="#DejaVuSans-6f" transform="translate(141.451172 0)"/>
      <use xlink:href="#DejaVuSans-75" transform="translate(202.632812 0)"/>
      <use xlink:href="#DejaVuSans-67" transform="translate(266.011719 0)"/>
      <use xlink:href="#DejaVuSans-68" transform="translate(329.488281 0)"/>
      <use xlink:href="#DejaVuSans-70" transform="translate(392.867188 0)"/>
      <use xlink:href="#DejaVuSans-75" transform="translate(456.34375 0)"/>
      <use xlink:href="#DejaVuSans-74" transform="translate(519.722656 0)"/>
      <use xlink:href="#DejaVuSans-20" transform="translate(558.931641 0)"/>
      <use xlink:href="#DejaVuSans-28" transform="translate(590.71875 0)"/>
      <use xlink:href="#DejaVuSans-74" transform="translate(629.732422 0)"/>
      <use xlink:href="#DejaVuSans-6f" transform="translate(668.941406 0)"/>
      <use xlink:href="#DejaVuSans-6b" transform="translate(730.123047 0)"/>
      <use xlink:href="#DejaVuSans-2f" transform="translate(788.033203 0)"/>
      <use xlink:href="#DejaVuSans-73" transform="translate(821.724609 0)"/>
      <use xlink:href="#DejaVuSans-29" transform="translate(873.824219 0)"/>
     </g>
    </g>
   </g>
   <g id="matplotlib.axis_2">
    <g id="ytick_1">
     <g id="line2d_7">
      <defs>
       <path id="m988ed385c3" d="M 0 0 
L -3.5 0 
" style="stroke: #000000; stroke-width: 0.8"/>
      </defs>
      <g>
       <use xlink:href="#m988ed385c3" x="72.708053" y="78.495209" style="stroke: #000000; stroke-width: 0.8"/>
      </g>
     </g>
     <g id="text_8">
      <!-- h1_matmul1 -->
      <g transform="translate(3.00024 82.294428) scale(0.1 -0.1)">
       <defs>
        <path id="DejaVuSans-5f" d="M 3263 -1063 
L 3263 -1509 
L -63 -1509 
L -63 -1063 
L 3263 -1063 
z
" transform="scale(0.015625)"/>
        <path id="DejaVuSans-6d" d="M 3328 2828 
Q 3544 3216 3844 3400 
Q 4144 3584 4550 3584 
Q 5097 3584 5394 3201 
Q 5691 2819 5691 2113 
L 5691 0 
L 5113 0 
L 5113 2094 
Q 5113 2597 4934 2840 
Q 4756 3084 4391 3084 
Q 3944 3084 3684 2787 
Q 3425 2491 3425 1978 
L 3425 0 
L 2847 0 
L 2847 2094 
Q 2847 2600 2669 2842 
Q 2491 3084 2119 3084 
Q 1678 3084 1418 2786 
Q 1159 2488 1159 1978 
L 1159 0 
L 581 0 
L 581 3500 
L 1159 3500 
L 1159 2956 
Q 1356 3278 1631 3431 
Q 1906 3584 2284 3584 
Q 2666 3584 2933 3390 
Q 3200 3197 3328 2828 
z
" transform="scale(0.015625)"/>
        <path id="DejaVuSans-61" d="M 2194 1759 
Q 1497 1759 1228 1600 
Q 959 1441 959 1056 
Q 959 750 1161 570 
Q 1363 391 1709 391 
Q 2188 391 2477 730 
Q 2766 1069 2766 1631 
L 2766 1759 
L 2194 1759 
z
M 3341 1997 
L 3341 0 
L 2766 0 
L 2766 531 
Q 2569 213 2275 61 
Q 1981 -91 1556 -91 
Q 1019 -91 701 211 
Q 384 513 384 1019 
Q 384 1609 779 1909 
Q 1175 2209 1959 2209 
L 2766 2209 
L 2766 2266 
Q 2766 2663 2505 2880 
Q 2244 3097 1772 3097 
Q 1472 3097 1187 3025 
Q 903 2953 641 2809 
L 641 3341 
Q 956 3463 1253 3523 
Q 1550 3584 1831 3584 
Q 2591 3584 2966 3190 
Q 3341 2797 3341 1997 
z
" transform="scale(0.015625)"/>
        <path id="DejaVuSans-6c" d="M 603 4863 
L 1178 4863 
L 1178 0 
L 603 0 
L 603 4863 
z
" transform="scale(0.015625)"/>
       </defs>
       <use xlink:href="#DejaVuSans-68"/>
       <use xlink:href="#DejaVuSans-31" transform="translate(63.378906 0)"/>
       <use xlink:href="#DejaVuSans-5f" transform="translate(127.001953 0)"/>
       <use xlink:href="#DejaVuSans-6d" transform="translate(177.001953 0)"/>
       <use xlink:href="#DejaVuSans-61" transform="translate(274.414062 0)"/>
       <use xlink:href="#DejaVuSans-74" transform="translate(335.693359 0)"/>
       <use xlink:href="#DejaVuSans-6d" transform="translate(374.902344 0)"/>
       <use xlink:href="#DejaVuSans-75" transform="translate(472.314453 0)"/>
       <use xlink:href="#DejaVuSans-6c" transform="translate(535.693359 0)"/>
       <use xlink:href="#DejaVuSans-31" transform="translate(563.476562 0)"/>
      </g>
     </g>
    </g>
    <g id="ytick_2">
     <g id="line2d_8">
      <g>
       <use xlink:href="#m988ed385c3" x="72.708053" y="125.53091" style="stroke: #000000; stroke-width: 0.8"/>
      </g>
     </g>
     <g id="text_9">
      <!-- h2_matmul2 -->
      <g transform="translate(3.00024 129.330129) scale(0.1 -0.1)">
       <use xlink:href="#DejaVuSans-68"/>
       <use xlink:href="#DejaVuSans-32" transform="translate(63.378906 0)"/>
       <use xlink:href="#DejaVuSans-5f" transform="translate(127.001953 0)"/>
       <use xlink:href="#DejaVuSans-6d" transform="translate(177.001953 0)"/>
       <use xlink:href="#DejaVuSans-61" transform="translate(274.414062 0)"/>
       <use xlink:href="#DejaVuSans-74" transform="translate(335.693359 0)"/>
       <use xlink:href="#DejaVuSans-6d" transform="translate(374.902344 0)"/>
       <use xlink:href="#DejaVuSans-75" transform="translate(472.314453 0)"/>
       <use xlink:href="#DejaVuSans-6c" transform="translate(535.693359 0)"/>
       <use xlink:href="#DejaVuSans-32" transform="translate(563.476562 0)"/>
      </g>
     </g>
    </g>
    <g id="ytick_3">
     <g id="line2d_9">
      <g>
       <use xlink:href="#m988ed385c3" x="72.708053" y="172.566612" style="stroke: #000000; stroke-width: 0.8"/>
      </g>
     </g>
     <g id="text_10">
      <!-- qkv -->
      <g transform="translate(47.65024 176.36583) scale(0.1 -0.1)">
       <defs>
        <path id="DejaVuSans-71" d="M 947 1747 
Q 947 1113 1208 752 
Q 1469 391 1925 391 
Q 2381 391 2643 752 
Q 2906 1113 2906 1747 
Q 2906 2381 2643 2742 
Q 2381 3103 1925 3103 
Q 1469 3103 1208 2742 
Q 947 2381 947 1747 
z
M 2906 525 
Q 2725 213 2448 61 
Q 2172 -91 1784 -91 
Q 1150 -91 751 415 
Q 353 922 353 1747 
Q 353 2572 751 3078 
Q 1150 3584 1784 3584 
Q 2172 3584 2448 3432 
Q 2725 3281 2906 2969 
L 2906 3500 
L 3481 3500 
L 3481 -1331 
L 2906 -1331 
L 2906 525 
z
" transform="scale(0.015625)"/>
        <path id="DejaVuSans-76" d="M 191 3500 
L 800 3500 
L 1894 563 
L 2988 3500 
L 3597 3500 
L 2284 0 
L 1503 0 
L 191 3500 
z
" transform="scale(0.015625)"/>
       </defs>
       <use xlink:href="#DejaVuSans-71"/>
       <use xlink:href="#DejaVuSans-6b" transform="translate(63.476562 0)"/>
       <use xlink:href="#DejaVuSans-76" transform="translate(121.386719 0)"/>
      </g>
     </g>
    </g>
    <g id="ytick_4">
     <g id="line2d_10">
      <g>
       <use xlink:href="#m988ed385c3" x="72.708053" y="219.602313" style="stroke: #000000; stroke-width: 0.8"/>
      </g>
     </g>
     <g id="text_11">
      <!-- h_matmul0 -->
      <g transform="translate(9.36274 223.401532) scale(0.1 -0.1)">
       <use xlink:href="#DejaVuSans-68"/>
       <use xlink:href="#DejaVuSans-5f" transform="translate(63.378906 0)"/>
       <use xlink:href="#DejaVuSans-6d" transform="translate(113.378906 0)"/>
       <use xlink:href="#DejaVuSans-61" transform="translate(210.791016 0)"/>
       <use xlink:href="#DejaVuSans-74" transform="translate(272.070312 0)"/>
       <use xlink:href="#DejaVuSans-6d" transform="translate(311.279297 0)"/>
       <use xlink:href="#DejaVuSans-75" transform="translate(408.691406 0)"/>
       <use xlink:href="#DejaVuSans-6c" transform="translate(472.070312 0)"/>
       <use xlink:href="#DejaVuSans-30" transform="translate(499.853516 0)"/>
      </g>
     </g>
    </g>
    <g id="ytick_5">
     <g id="line2d_11">
      <g>
       <use xlink:href="#m988ed385c3" x="72.708053" y="266.638014" style="stroke: #000000; stroke-width: 0.8"/>
      </g>
     </g>
     <g id="text_12">
      <!-- q_mul_k -->
      <g transform="translate(24.71274 270.437233) scale(0.1 -0.1)">
       <use xlink:href="#DejaVuSans-71"/>
       <use xlink:href="#DejaVuSans-5f" transform="translate(63.476562 0)"/>
       <use xlink:href="#DejaVuSans-6d" transform="translate(113.476562 0)"/>
       <use xlink:href="#DejaVuSans-75" transform="translate(210.888672 0)"/>
       <use xlink:href="#DejaVuSans-6c" transform="translate(274.267578 0)"/>
       <use xlink:href="#DejaVuSans-5f" transform="translate(302.050781 0)"/>
       <use xlink:href="#DejaVuSans-6b" transform="translate(352.050781 0)"/>
      </g>
     </g>
    </g>
    <g id="ytick_6">
     <g id="line2d_12">
      <g>
       <use xlink:href="#m988ed385c3" x="72.708053" y="313.673716" style="stroke: #000000; stroke-width: 0.8"/>
      </g>
     </g>
     <g id="text_13">
      <!-- a_mul_v -->
      <g transform="translate(24.804928 317.472934) scale(0.1 -0.1)">
       <use xlink:href="#DejaVuSans-61"/>
       <use xlink:href="#DejaVuSans-5f" transform="translate(61.279297 0)"/>
       <use xlink:href="#DejaVuSans-6d" transform="translate(111.279297 0)"/>
       <use xlink:href="#DejaVuSans-75" transform="translate(208.691406 0)"/>
       <use xlink:href="#DejaVuSans-6c" transform="translate(272.070312 0)"/>
       <use xlink:href="#DejaVuSans-5f" transform="translate(299.853516 0)"/>
       <use xlink:href="#DejaVuSans-76" transform="translate(349.853516 0)"/>
      </g>
     </g>
    </g>
    <g id="ytick_7">
     <g id="line2d_13">
      <g>
       <use xlink:href="#m988ed385c3" x="72.708053" y="360.709417" style="stroke: #000000; stroke-width: 0.8"/>
      </g>
     </g>
     <g id="text_14">
      <!-- softmax -->
      <g transform="translate(25.326803 364.508636) scale(0.1 -0.1)">
       <defs>
        <path id="DejaVuSans-66" d="M 2375 4863 
L 2375 4384 
L 1825 4384 
Q 1516 4384 1395 4259 
Q 1275 4134 1275 3809 
L 1275 3500 
L 2222 3500 
L 2222 3053 
L 1275 3053 
L 1275 0 
L 697 0 
L 697 3053 
L 147 3053 
L 147 3500 
L 697 3500 
L 697 3744 
Q 697 4328 969 4595 
Q 1241 4863 1831 4863 
L 2375 4863 
z
" transform="scale(0.015625)"/>
        <path id="DejaVuSans-78" d="M 3513 3500 
L 2247 1797 
L 3578 0 
L 2900 0 
L 1881 1375 
L 863 0 
L 184 0 
L 1544 1831 
L 300 3500 
L 978 3500 
L 1906 2253 
L 2834 3500 
L 3513 3500 
z
" transform="scale(0.015625)"/>
       </defs>
       <use xlink:href="#DejaVuSans-73"/>
       <use xlink:href="#DejaVuSans-6f" transform="translate(52.099609 0)"/>
       <use xlink:href="#DejaVuSans-66" transform="translate(113.28125 0)"/>
       <use xlink:href="#DejaVuSans-74" transform="translate(146.736328 0)"/>
       <use xlink:href="#DejaVuSans-6d" transform="translate(185.945312 0)"/>
       <use xlink:href="#DejaVuSans-61" transform="translate(283.357422 0)"/>
       <use xlink:href="#DejaVuSans-78" transform="translate(344.636719 0)"/>
      </g>
     </g>
    </g>
    <g id="ytick_8">
     <g id="line2d_14">
      <g>
       <use xlink:href="#m988ed385c3" x="72.708053" y="407.745118" style="stroke: #000000; stroke-width: 0.8"/>
      </g>
     </g>
     <g id="text_15">
      <!-- gelu -->
      <g transform="translate(44.090865 411.544337) scale(0.1 -0.1)">
       <defs>
        <path id="DejaVuSans-65" d="M 3597 1894 
L 3597 1613 
L 953 1613 
Q 991 1019 1311 708 
Q 1631 397 2203 397 
Q 2534 397 2845 478 
Q 3156 559 3463 722 
L 3463 178 
Q 3153 47 2828 -22 
Q 2503 -91 2169 -91 
Q 1331 -91 842 396 
Q 353 884 353 1716 
Q 353 2575 817 3079 
Q 1281 3584 2069 3584 
Q 2775 3584 3186 3129 
Q 3597 2675 3597 1894 
z
M 3022 2063 
Q 3016 2534 2758 2815 
Q 2500 3097 2075 3097 
Q 1594 3097 1305 2825 
Q 1016 2553 972 2059 
L 3022 2063 
z
" transform="scale(0.015625)"/>
       </defs>
       <use xlink:href="#DejaVuSans-67"/>
       <use xlink:href="#DejaVuSans-65" transform="translate(63.476562 0)"/>
       <use xlink:href="#DejaVuSans-6c" transform="translate(125 0)"/>
       <use xlink:href="#DejaVuSans-75" transform="translate(152.783203 0)"/>
      </g>
     </g>
    </g>
    <g id="ytick_9">
     <g id="line2d_15">
      <g>
       <use xlink:href="#m988ed385c3" x="72.708053" y="454.78082" style="stroke: #000000; stroke-width: 0.8"/>
      </g>
     </g>
     <g id="text_16">
      <!-- layernorm0 -->
      <g transform="translate(8.298678 458.580039) scale(0.1 -0.1)">
       <defs>
        <path id="DejaVuSans-79" d="M 2059 -325 
Q 1816 -950 1584 -1140 
Q 1353 -1331 966 -1331 
L 506 -1331 
L 506 -850 
L 844 -850 
Q 1081 -850 1212 -737 
Q 1344 -625 1503 -206 
L 1606 56 
L 191 3500 
L 800 3500 
L 1894 763 
L 2988 3500 
L 3597 3500 
L 2059 -325 
z
" transform="scale(0.015625)"/>
        <path id="DejaVuSans-6e" d="M 3513 2113 
L 3513 0 
L 2938 0 
L 2938 2094 
Q 2938 2591 2744 2837 
Q 2550 3084 2163 3084 
Q 1697 3084 1428 2787 
Q 1159 2491 1159 1978 
L 1159 0 
L 581 0 
L 581 3500 
L 1159 3500 
L 1159 2956 
Q 1366 3272 1645 3428 
Q 1925 3584 2291 3584 
Q 2894 3584 3203 3211 
Q 3513 2838 3513 2113 
z
" transform="scale(0.015625)"/>
       </defs>
       <use xlink:href="#DejaVuSans-6c"/>
       <use xlink:href="#DejaVuSans-61" transform="translate(27.783203 0)"/>
       <use xlink:href="#DejaVuSans-79" transform="translate(89.0625 0)"/>
       <use xlink:href="#DejaVuSans-65" transform="translate(148.242188 0)"/>
       <use xlink:href="#DejaVuSans-72" transform="translate(209.765625 0)"/>
       <use xlink:href="#DejaVuSans-6e" transform="translate(249.128906 0)"/>
       <use xlink:href="#DejaVuSans-6f" transform="translate(312.507812 0)"/>
       <use xlink:href="#DejaVuSans-72" transform="translate(373.689453 0)"/>
       <use xlink:href="#DejaVuSans-6d" transform="translate(413.052734 0)"/>
       <use xlink:href="#DejaVuSans-30" transform="translate(510.464844 0)"/>
      </g>
     </g>
    </g>
    <g id="ytick_10">
     <g id="line2d_16">
      <g>
       <use xlink:href="#m988ed385c3" x="72.708053" y="501.816521" style="stroke: #000000; stroke-width: 0.8"/>
      </g>
     </g>
     <g id="text_17">
      <!-- layernorm1 -->
      <g transform="translate(8.298678 505.61574) scale(0.1 -0.1)">
       <use xlink:href="#DejaVuSans-6c"/>
       <use xlink:href="#DejaVuSans-61" transform="translate(27.783203 0)"/>
       <use xlink:href="#DejaVuSans-79" transform="translate(89.0625 0)"/>
       <use xlink:href="#DejaVuSans-65" transform="translate(148.242188 0)"/>
       <use xlink:href="#DejaVuSans-72" transform="translate(209.765625 0)"/>
       <use xlink:href="#DejaVuSans-6e" transform="translate(249.128906 0)"/>
       <use xlink:href="#DejaVuSans-6f" transform="translate(312.507812 0)"/>
       <use xlink:href="#DejaVuSans-72" transform="translate(373.689453 0)"/>
       <use xlink:href="#DejaVuSans-6d" transform="translate(413.052734 0)"/>
       <use xlink:href="#DejaVuSans-31" transform="translate(510.464844 0)"/>
      </g>
     </g>
    </g>
   </g>
   <g id="patch_23">
    <path d="M 72.708053 542.64351 
L 72.708053 37.66822 
" style="fill: none; stroke: #000000; stroke-width: 0.8; stroke-linejoin: miter; stroke-linecap: square"/>
   </g>
   <g id="patch_24">
    <path d="M 570.24 542.64351 
L 570.24 37.66822 
" style="fill: none; stroke: #000000; stroke-width: 0.8; stroke-linejoin: miter; stroke-linecap: square"/>
   </g>
   <g id="patch_25">
    <path d="M 72.708053 542.64351 
L 570.24 542.64351 
" style="fill: none; stroke: #000000; stroke-width: 0.8; stroke-linejoin: miter; stroke-linecap: square"/>
   </g>
   <g id="patch_26">
    <path d="M 72.708053 37.66822 
L 570.24 37.66822 
" style="fill: none; stroke: #000000; stroke-width: 0.8; stroke-linejoin: miter; stroke-linecap: square"/>
   </g>
   <g id="text_18">
    <!-- 84.3% -->
    <g transform="translate(73.204794 89.639492) scale(0.08 -0.08)">
     <defs>
      <path id="DejaVuSans-2e" d="M 684 794 
L 1344 794 
L 1344 0 
L 684 0 
L 684 794 
z
" transform="scale(0.015625)"/>
      <path id="DejaVuSans-33" d="M 2597 2516 
Q 3050 2419 3304 2112 
Q 3559 1806 3559 1356 
Q 3559 666 3084 287 
Q 2609 -91 1734 -91 
Q 1441 -91 1130 -33 
Q 819 25 488 141 
L 488 750 
Q 750 597 1062 519 
Q 1375 441 1716 441 
Q 2309 441 2620 675 
Q 2931 909 2931 1356 
Q 2931 1769 2642 2001 
Q 2353 2234 1838 2234 
L 1294 2234 
L 1294 2753 
L 1863 2753 
Q 2328 2753 2575 2939 
Q 2822 3125 2822 3475 
Q 2822 3834 2567 4026 
Q 2313 4219 1838 4219 
Q 1578 4219 1281 4162 
Q 984 4106 628 3988 
L 628 4550 
Q 988 4650 1302 4700 
Q 1616 4750 1894 4750 
Q 2613 4750 3031 4423 
Q 3450 4097 3450 3541 
Q 3450 3153 3228 2886 
Q 3006 2619 2597 2516 
z
" transform="scale(0.015625)"/>
      <path id="DejaVuSans-25" d="M 4653 2053 
Q 4381 2053 4226 1822 
Q 4072 1591 4072 1178 
Q 4072 772 4226 539 
Q 4381 306 4653 306 
Q 4919 306 5073 539 
Q 5228 772 5228 1178 
Q 5228 1588 5073 1820 
Q 4919 2053 4653 2053 
z
M 4653 2450 
Q 5147 2450 5437 2106 
Q 5728 1763 5728 1178 
Q 5728 594 5436 251 
Q 5144 -91 4653 -91 
Q 4153 -91 3862 251 
Q 3572 594 3572 1178 
Q 3572 1766 3864 2108 
Q 4156 2450 4653 2450 
z
M 1428 4353 
Q 1159 4353 1004 4120 
Q 850 3888 850 3481 
Q 850 3069 1003 2837 
Q 1156 2606 1428 2606 
Q 1700 2606 1854 2837 
Q 2009 3069 2009 3481 
Q 2009 3884 1853 4118 
Q 1697 4353 1428 4353 
z
M 4250 4750 
L 4750 4750 
L 1831 -91 
L 1331 -91 
L 4250 4750 
z
M 1428 4750 
Q 1922 4750 2215 4408 
Q 2509 4066 2509 3481 
Q 2509 2891 2217 2550 
Q 1925 2209 1428 2209 
Q 931 2209 642 2551 
Q 353 2894 353 3481 
Q 353 4063 643 4406 
Q 934 4750 1428 4750 
z
" transform="scale(0.015625)"/>
     </defs>
     <use xlink:href="#DejaVuSans-38"/>
     <use xlink:href="#DejaVuSans-34" transform="translate(63.623047 0)"/>
     <use xlink:href="#DejaVuSans-2e" transform="translate(127.246094 0)"/>
     <use xlink:href="#DejaVuSans-33" transform="translate(159.033203 0)"/>
     <use xlink:href="#DejaVuSans-25" transform="translate(222.65625 0)"/>
    </g>
   </g>
   <g id="text_19">
    <!-- 65.6% -->
    <g transform="translate(73.05819 136.675193) scale(0.08 -0.08)">
     <defs>
      <path id="DejaVuSans-35" d="M 691 4666 
L 3169 4666 
L 3169 4134 
L 1269 4134 
L 1269 2991 
Q 1406 3038 1543 3061 
Q 1681 3084 1819 3084 
Q 2600 3084 3056 2656 
Q 3513 2228 3513 1497 
Q 3513 744 3044 326 
Q 2575 -91 1722 -91 
Q 1428 -91 1123 -41 
Q 819 9 494 109 
L 494 744 
Q 775 591 1075 516 
Q 1375 441 1709 441 
Q 2250 441 2565 725 
Q 2881 1009 2881 1497 
Q 2881 1984 2565 2268 
Q 2250 2553 1709 2553 
Q 1456 2553 1204 2497 
Q 953 2441 691 2322 
L 691 4666 
z
" transform="scale(0.015625)"/>
     </defs>
     <use xlink:href="#DejaVuSans-36"/>
     <use xlink:href="#DejaVuSans-35" transform="translate(63.623047 0)"/>
     <use xlink:href="#DejaVuSans-2e" transform="translate(127.246094 0)"/>
     <use xlink:href="#DejaVuSans-36" transform="translate(159.033203 0)"/>
     <use xlink:href="#DejaVuSans-25" transform="translate(222.65625 0)"/>
    </g>
   </g>
   <g id="text_20">
    <!-- 85.6% -->
    <g transform="translate(73.393222 183.710895) scale(0.08 -0.08)">
     <use xlink:href="#DejaVuSans-38"/>
     <use xlink:href="#DejaVuSans-35" transform="translate(63.623047 0)"/>
     <use xlink:href="#DejaVuSans-2e" transform="translate(127.246094 0)"/>
     <use xlink:href="#DejaVuSans-36" transform="translate(159.033203 0)"/>
     <use xlink:href="#DejaVuSans-25" transform="translate(222.65625 0)"/>
    </g>
   </g>
   <g id="text_21">
    <!-- 68.3% -->
    <g transform="translate(74.18185 230.746596) scale(0.08 -0.08)">
     <use xlink:href="#DejaVuSans-36"/>
     <use xlink:href="#DejaVuSans-38" transform="translate(63.623047 0)"/>
     <use xlink:href="#DejaVuSans-2e" transform="translate(127.246094 0)"/>
     <use xlink:href="#DejaVuSans-33" transform="translate(159.033203 0)"/>
     <use xlink:href="#DejaVuSans-25" transform="translate(222.65625 0)"/>
    </g>
   </g>
   <g id="text_22">
    <!-- 41.8% -->
    <g transform="translate(140.73723 277.782298) scale(0.08 -0.08)">
     <use xlink:href="#DejaVuSans-34"/>
     <use xlink:href="#DejaVuSans-31" transform="translate(63.623047 0)"/>
     <use xlink:href="#DejaVuSans-2e" transform="translate(127.246094 0)"/>
     <use xlink:href="#DejaVuSans-38" transform="translate(159.033203 0)"/>
     <use xlink:href="#DejaVuSans-25" transform="translate(222.65625 0)"/>
    </g>
   </g>
   <g id="text_23">
    <!-- 41.8% -->
    <g transform="translate(140.73723 324.817999) scale(0.08 -0.08)">
     <use xlink:href="#DejaVuSans-34"/>
     <use xlink:href="#DejaVuSans-31" transform="translate(63.623047 0)"/>
     <use xlink:href="#DejaVuSans-2e" transform="translate(127.246094 0)"/>
     <use xlink:href="#DejaVuSans-38" transform="translate(159.033203 0)"/>
     <use xlink:href="#DejaVuSans-25" transform="translate(222.65625 0)"/>
    </g>
   </g>
   <g id="text_24">
    <!-- 41.1% -->
    <g transform="translate(269.322184 371.8537) scale(0.08 -0.08)">
     <use xlink:href="#DejaVuSans-34"/>
     <use xlink:href="#DejaVuSans-31" transform="translate(63.623047 0)"/>
     <use xlink:href="#DejaVuSans-2e" transform="translate(127.246094 0)"/>
     <use xlink:href="#DejaVuSans-31" transform="translate(159.033203 0)"/>
     <use xlink:href="#DejaVuSans-25" transform="translate(222.65625 0)"/>
    </g>
   </g>
   <g id="text_25">
    <!-- 39.5% -->
    <g transform="translate(132.416852 418.889402) scale(0.08 -0.08)">
     <defs>
      <path id="DejaVuSans-39" d="M 703 97 
L 703 672 
Q 941 559 1184 500 
Q 1428 441 1663 441 
Q 2288 441 2617 861 
Q 2947 1281 2994 2138 
Q 2813 1869 2534 1725 
Q 2256 1581 1919 1581 
Q 1219 1581 811 2004 
Q 403 2428 403 3163 
Q 403 3881 828 4315 
Q 1253 4750 1959 4750 
Q 2769 4750 3195 4129 
Q 3622 3509 3622 2328 
Q 3622 1225 3098 567 
Q 2575 -91 1691 -91 
Q 1453 -91 1209 -44 
Q 966 3 703 97 
z
M 1959 2075 
Q 2384 2075 2632 2365 
Q 2881 2656 2881 3163 
Q 2881 3666 2632 3958 
Q 2384 4250 1959 4250 
Q 1534 4250 1286 3958 
Q 1038 3666 1038 3163 
Q 1038 2656 1286 2365 
Q 1534 2075 1959 2075 
z
" transform="scale(0.015625)"/>
     </defs>
     <use xlink:href="#DejaVuSans-33"/>
     <use xlink:href="#DejaVuSans-39" transform="translate(63.623047 0)"/>
     <use xlink:href="#DejaVuSans-2e" transform="translate(127.246094 0)"/>
     <use xlink:href="#DejaVuSans-35" transform="translate(159.033203 0)"/>
     <use xlink:href="#DejaVuSans-25" transform="translate(222.65625 0)"/>
    </g>
   </g>
   <g id="text_26">
    <!-- 43.5% -->
    <g transform="translate(97.943803 465.925103) scale(0.08 -0.08)">
     <use xlink:href="#DejaVuSans-34"/>
     <use xlink:href="#DejaVuSans-33" transform="translate(63.623047 0)"/>
     <use xlink:href="#DejaVuSans-2e" transform="translate(127.246094 0)"/>
     <use xlink:href="#DejaVuSans-35" transform="translate(159.033203 0)"/>
     <use xlink:href="#DejaVuSans-25" transform="translate(222.65625 0)"/>
    </g>
   </g>
   <g id="text_27">
    <!-- 43.5% -->
    <g transform="translate(97.943803 512.960804) scale(0.08 -0.08)">
     <use xlink:href="#DejaVuSans-34"/>
     <use xlink:href="#DejaVuSans-33" transform="translate(63.623047 0)"/>
     <use xlink:href="#DejaVuSans-2e" transform="translate(127.246094 0)"/>
     <use xlink:href="#DejaVuSans-35" transform="translate(159.033203 0)"/>
     <use xlink:href="#DejaVuSans-25" transform="translate(222.65625 0)"/>
    </g>
   </g>
   <g id="text_28">
    <!-- Prefill component throughput -->
    <g transform="translate(233.531839 31.66822) scale(0.12 -0.12)">
     <defs>
      <path id="DejaVuSans-50" d="M 1259 4147 
L 1259 2394 
L 2053 2394 
Q 2494 2394 2734 2622 
Q 2975 2850 2975 3272 
Q 2975 3691 2734 3919 
Q 2494 4147 2053 4147 
L 1259 4147 
z
M 628 4666 
L 2053 4666 
Q 2838 4666 3239 4311 
Q 3641 3956 3641 3272 
Q 3641 2581 3239 2228 
Q 2838 1875 2053 1875 
L 1259 1875 
L 1259 0 
L 628 0 
L 628 4666 
z
" transform="scale(0.015625)"/>
      <path id="DejaVuSans-69" d="M 603 3500 
L 1178 3500 
L 1178 0 
L 603 0 
L 603 3500 
z
M 603 4863 
L 1178 4863 
L 1178 4134 
L 603 4134 
L 603 4863 
z
" transform="scale(0.015625)"/>
      <path id="DejaVuSans-63" d="M 3122 3366 
L 3122 2828 
Q 2878 2963 2633 3030 
Q 2388 3097 2138 3097 
Q 1578 3097 1268 2742 
Q 959 2388 959 1747 
Q 959 1106 1268 751 
Q 1578 397 2138 397 
Q 2388 397 2633 464 
Q 2878 531 3122 666 
L 3122 134 
Q 2881 22 2623 -34 
Q 2366 -91 2075 -91 
Q 1284 -91 818 406 
Q 353 903 353 1747 
Q 353 2603 823 3093 
Q 1294 3584 2113 3584 
Q 2378 3584 2631 3529 
Q 2884 3475 3122 3366 
z
" transform="scale(0.015625)"/>
     </defs>
     <use xlink:href="#DejaVuSans-50"/>
     <use xlink:href="#DejaVuSans-72" transform="translate(58.552734 0)"/>
     <use xlink:href="#DejaVuSans-65" transform="translate(97.416016 0)"/>
     <use xlink:href="#DejaVuSans-66" transform="translate(158.939453 0)"/>
     <use xlink:href="#DejaVuSans-69" transform="translate(194.144531 0)"/>
     <use xlink:href="#DejaVuSans-6c" transform="translate(221.927734 0)"/>
     <use xlink:href="#DejaVuSans-6c" transform="translate(249.710938 0)"/>
     <use xlink:href="#DejaVuSans-20" transform="translate(277.494141 0)"/>
     <use xlink:href="#DejaVuSans-63" transform="translate(309.28125 0)"/>
     <use xlink:href="#DejaVuSans-6f" transform="translate(364.261719 0)"/>
     <use xlink:href="#DejaVuSans-6d" transform="translate(425.443359 0)"/>
     <use xlink:href="#DejaVuSans-70" transform="translate(522.855469 0)"/>
     <use xlink:href="#DejaVuSans-6f" transform="translate(586.332031 0)"/>
     <use xlink:href="#DejaVuSans-6e" transform="translate(647.513672 0)"/>
     <use xlink:href="#DejaVuSans-65" transform="translate(710.892578 0)"/>
     <use xlink:href="#DejaVuSans-6e" transform="translate(772.416016 0)"/>
     <use xlink:href="#DejaVuSans-74" transform="translate(835.794922 0)"/>
     <use xlink:href="#DejaVuSans-20" transform="translate(875.003906 0)"/>
     <use xlink:href="#DejaVuSans-74" transform="translate(906.791016 0)"/>
     <use xlink:href="#DejaVuSans-68" transform="translate(946 0)"/>
     <use xlink:href="#DejaVuSans-72" transform="translate(1009.378906 0)"/>
     <use xlink:href="#DejaVuSans-6f" transform="translate(1048.242188 0)"/>
     <use xlink:href="#DejaVuSans-75" transform="translate(1109.423828 0)"/>
     <use xlink:href="#DejaVuSans-67" transform="translate(1172.802734 0)"/>
     <use xlink:href="#DejaVuSans-68" transform="translate(1236.279297 0)"/>
     <use xlink:href="#DejaVuSans-70" transform="translate(1299.658203 0)"/>
     <use xlink:href="#DejaVuSans-75" transform="translate(1363.134766 0)"/>
     <use xlink:href="#DejaVuSans-74" transform="translate(1426.513672 0)"/>
    </g>
   </g>
  </g>
  <g id="axes_2">
   <g id="patch_27">
    <path d="M 651.467812 542.64351 
L 1148.99976 542.64351 
L 1148.99976 37.66822 
L 651.467812 37.66822 
z
" style="fill: #ffffff"/>
   </g>
   <g id="patch_28">
    <path d="M 651.467812 60.621642 
L 710.813926 60.621642 
L 710.813926 78.495209 
L 651.467812 78.495209 
z
" clip-path="url(#pffacb71d33)" style="fill: #4c78a8"/>
   </g>
   <g id="patch_29">
    <path d="M 651.467812 107.657344 
L 703.257678 107.657344 
L 703.257678 125.53091 
L 651.467812 125.53091 
z
" clip-path="url(#pffacb71d33)" style="fill: #4c78a8"/>
   </g>
   <g id="patch_30">
    <path d="M 651.467812 154.693045 
L 730.683728 154.693045 
L 730.683728 172.566612 
L 651.467812 172.566612 
z
" clip-path="url(#pffacb71d33)" style="fill: #4c78a8"/>
   </g>
   <g id="patch_31">
    <path d="M 651.467812 201.728746 
L 858.973104 201.728746 
L 858.973104 219.602313 
L 651.467812 219.602313 
z
" clip-path="url(#pffacb71d33)" style="fill: #4c78a8"/>
   </g>
   <g id="patch_32">
    <path d="M 651.467812 248.764448 
L 1082.231403 248.764448 
L 1082.231403 266.638014 
L 651.467812 266.638014 
z
" clip-path="url(#pffacb71d33)" style="fill: #4c78a8"/>
   </g>
   <g id="patch_33">
    <path d="M 651.467812 295.800149 
L 1059.495587 295.800149 
L 1059.495587 313.673716 
L 651.467812 313.673716 
z
" clip-path="url(#pffacb71d33)" style="fill: #4c78a8"/>
   </g>
   <g id="patch_34">
    <path d="M 651.467812 342.835851 
L 1125.307762 342.835851 
L 1125.307762 360.709417 
L 651.467812 360.709417 
z
" clip-path="url(#pffacb71d33)" style="fill: #4c78a8"/>
   </g>
   <g id="patch_35">
    <path d="M 651.467812 389.871552 
L 1125.307762 389.871552 
L 1125.307762 407.745118 
L 651.467812 407.745118 
z
" clip-path="url(#pffacb71d33)" style="fill: #4c78a8"/>
   </g>
   <g id="patch_36">
    <path d="M 651.467812 436.907253 
L 1125.307762 436.907253 
L 1125.307762 454.78082 
L 651.467812 454.78082 
z
" clip-path="url(#pffacb71d33)" style="fill: #4c78a8"/>
   </g>
   <g id="patch_37">
    <path d="M 651.467812 483.942955 
L 1125.307762 483.942955 
L 1125.307762 501.816521 
L 651.467812 501.816521 
z
" clip-path="url(#pffacb71d33)" style="fill: #4c78a8"/>
   </g>
   <g id="patch_38">
    <path d="M 651.467812 78.495209 
L 704.668052 78.495209 
L 704.668052 96.368775 
L 651.467812 96.368775 
z
" clip-path="url(#pffacb71d33)" style="fill: #f58518"/>
   </g>
   <g id="patch_39">
    <path d="M 651.467812 125.53091 
L 679.410427 125.53091 
L 679.410427 143.404477 
L 651.467812 143.404477 
z
" clip-path="url(#pffacb71d33)" style="fill: #f58518"/>
   </g>
   <g id="patch_40">
    <path d="M 651.467812 172.566612 
L 722.64114 172.566612 
L 722.64114 190.440178 
L 651.467812 190.440178 
z
" clip-path="url(#pffacb71d33)" style="fill: #f58518"/>
   </g>
   <g id="patch_41">
    <path d="M 651.467812 219.602313 
L 781.959923 219.602313 
L 781.959923 237.475879 
L 651.467812 237.475879 
z
" clip-path="url(#pffacb71d33)" style="fill: #f58518"/>
   </g>
   <g id="patch_42">
    <path d="M 651.467812 266.638014 
L 964.535293 266.638014 
L 964.535293 284.511581 
L 651.467812 284.511581 
z
" clip-path="url(#pffacb71d33)" style="fill: #f58518"/>
   </g>
   <g id="patch_43">
    <path d="M 651.467812 313.673716 
L 1045.058406 313.673716 
L 1045.058406 331.547282 
L 651.467812 331.547282 
z
" clip-path="url(#pffacb71d33)" style="fill: #f58518"/>
   </g>
   <g id="patch_44">
    <path d="M 651.467812 360.709417 
L 1125.307762 360.709417 
L 1125.307762 378.582984 
L 651.467812 378.582984 
z
" clip-path="url(#pffacb71d33)" style="fill: #f58518"/>
   </g>
   <g id="patch_45">
    <path d="M 651.467812 407.745118 
L 1125.307762 407.745118 
L 1125.307762 425.618685 
L 651.467812 425.618685 
z
" clip-path="url(#pffacb71d33)" style="fill: #f58518"/>
   </g>
   <g id="patch_46">
    <path d="M 651.467812 454.78082 
L 1125.307762 454.78082 
L 1125.307762 472.654386 
L 651.467812 472.654386 
z
" clip-path="url(#pffacb71d33)" style="fill: #f58518"/>
   </g>
   <g id="patch_47">
    <path d="M 651.467812 501.816521 
L 1125.307762 501.816521 
L 1125.307762 519.690088 
L 651.467812 519.690088 
z
" clip-path="url(#pffacb71d33)" style="fill: #f58518"/>
   </g>
   <g id="matplotlib.axis_3">
    <g id="xtick_7">
     <g id="line2d_17">
      <g>
       <use xlink:href="#m5dc1c37fea" x="651.467812" y="542.64351" style="stroke: #000000; stroke-width: 0.8"/>
      </g>
     </g>
     <g id="text_29">
      <!-- 0 -->
      <g transform="translate(648.286562 557.241948) scale(0.1 -0.1)">
       <use xlink:href="#DejaVuSans-30"/>
      </g>
     </g>
    </g>
    <g id="xtick_8">
     <g id="line2d_18">
      <g>
       <use xlink:href="#m5dc1c37fea" x="730.650498" y="542.64351" style="stroke: #000000; stroke-width: 0.8"/>
      </g>
     </g>
     <g id="text_30">
      <!-- 5 -->
      <g transform="translate(727.469248 557.241948) scale(0.1 -0.1)">
       <use xlink:href="#DejaVuSans-35"/>
      </g>
     </g>
    </g>
    <g id="xtick_9">
     <g id="line2d_19">
      <g>
       <use xlink:href="#m5dc1c37fea" x="809.833184" y="542.64351" style="stroke: #000000; stroke-width: 0.8"/>
      </g>
     </g>
     <g id="text_31">
      <!-- 10 -->
      <g transform="translate(803.470684 557.241948) scale(0.1 -0.1)">
       <use xlink:href="#DejaVuSans-31"/>
       <use xlink:href="#DejaVuSans-30" transform="translate(63.623047 0)"/>
      </g>
     </g>
    </g>
    <g id="xtick_10">
     <g id="line2d_20">
      <g>
       <use xlink:href="#m5dc1c37fea" x="889.015869" y="542.64351" style="stroke: #000000; stroke-width: 0.8"/>
      </g>
     </g>
     <g id="text_32">
      <!-- 15 -->
      <g transform="translate(882.653369 557.241948) scale(0.1 -0.1)">
       <use xlink:href="#DejaVuSans-31"/>
       <use xlink:href="#DejaVuSans-35" transform="translate(63.623047 0)"/>
      </g>
     </g>
    </g>
    <g id="xtick_11">
     <g id="line2d_21">
      <g>
       <use xlink:href="#m5dc1c37fea" x="968.198555" y="542.64351" style="stroke: #000000; stroke-width: 0.8"/>
      </g>
     </g>
     <g id="text_33">
      <!-- 20 -->
      <g transform="translate(961.836055 557.241948) scale(0.1 -0.1)">
       <use xlink:href="#DejaVuSans-32"/>
       <use xlink:href="#DejaVuSans-30" transform="translate(63.623047 0)"/>
      </g>
     </g>
    </g>
    <g id="xtick_12">
     <g id="line2d_22">
      <g>
       <use xlink:href="#m5dc1c37fea" x="1047.381241" y="542.64351" style="stroke: #000000; stroke-width: 0.8"/>
      </g>
     </g>
     <g id="text_34">
      <!-- 25 -->
      <g transform="translate(1041.018741 557.241948) scale(0.1 -0.1)">
       <use xlink:href="#DejaVuSans-32"/>
       <use xlink:href="#DejaVuSans-35" transform="translate(63.623047 0)"/>
      </g>
     </g>
    </g>
    <g id="xtick_13">
     <g id="line2d_23">
      <g>
       <use xlink:href="#m5dc1c37fea" x="1126.563926" y="542.64351" style="stroke: #000000; stroke-width: 0.8"/>
      </g>
     </g>
     <g id="text_35">
      <!-- 30 -->
      <g transform="translate(1120.201426 557.241948) scale(0.1 -0.1)">
       <use xlink:href="#DejaVuSans-33"/>
       <use xlink:href="#DejaVuSans-30" transform="translate(63.623047 0)"/>
      </g>
     </g>
    </g>
    <g id="text_36">
     <!-- throughput (tok/s) -->
     <g transform="translate(854.593161 570.920072) scale(0.1 -0.1)">
      <use xlink:href="#DejaVuSans-74"/>
      <use xlink:href="#DejaVuSans-68" transform="translate(39.208984 0)"/>
      <use xlink:href="#DejaVuSans-72" transform="translate(102.587891 0)"/>
      <use xlink:href="#DejaVuSans-6f" transform="translate(141.451172 0)"/>
      <use xlink:href="#DejaVuSans-75" transform="translate(202.632812 0)"/>
      <use xlink:href="#DejaVuSans-67" transform="translate(266.011719 0)"/>
      <use xlink:href="#DejaVuSans-68" transform="translate(329.488281 0)"/>
      <use xlink:href="#DejaVuSans-70" transform="translate(392.867188 0)"/>
      <use xlink:href="#DejaVuSans-75" transform="translate(456.34375 0)"/>
      <use xlink:href="#DejaVuSans-74" transform="translate(519.722656 0)"/>
      <use xlink:href="#DejaVuSans-20" transform="translate(558.931641 0)"/>
      <use xlink:href="#DejaVuSans-28" transform="translate(590.71875 0)"/>
      <use xlink:href="#DejaVuSans-74" transform="translate(629.732422 0)"/>
      <use xlink:href="#DejaVuSans-6f" transform="translate(668.941406 0)"/>
      <use xlink:href="#DejaVuSans-6b" transform="translate(730.123047 0)"/>
      <use xlink:href="#DejaVuSans-2f" transform="translate(788.033203 0)"/>
      <use xlink:href="#DejaVuSans-73" transform="translate(821.724609 0)"/>
      <use xlink:href="#DejaVuSans-29" transform="translate(873.824219 0)"/>
     </g>
    </g>
   </g>
   <g id="matplotlib.axis_4">
    <g id="ytick_11">
     <g id="line2d_24">
      <g>
       <use xlink:href="#m988ed385c3" x="651.467812" y="78.495209" style="stroke: #000000; stroke-width: 0.8"/>
      </g>
     </g>
     <g id="text_37">
      <!-- h1_matmul1 -->
      <g transform="translate(581.76 82.294428) scale(0.1 -0.1)">
       <use xlink:href="#DejaVuSans-68"/>
       <use xlink:href="#DejaVuSans-31" transform="translate(63.378906 0)"/>
       <use xlink:href="#DejaVuSans-5f" transform="translate(127.001953 0)"/>
       <use xlink:href="#DejaVuSans-6d" transform="translate(177.001953 0)"/>
       <use xlink:href="#DejaVuSans-61" transform="translate(274.414062 0)"/>
       <use xlink:href="#DejaVuSans-74" transform="translate(335.693359 0)"/>
       <use xlink:href="#DejaVuSans-6d" transform="translate(374.902344 0)"/>
       <use xlink:href="#DejaVuSans-75" transform="translate(472.314453 0)"/>
       <use xlink:href="#DejaVuSans-6c" transform="translate(535.693359 0)"/>
       <use xlink:href="#DejaVuSans-31" transform="translate(563.476562 0)"/>
      </g>
     </g>
    </g>
    <g id="ytick_12">
     <g id="line2d_25">
      <g>
       <use xlink:href="#m988ed385c3" x="651.467812" y="125.53091" style="stroke: #000000; stroke-width: 0.8"/>
      </g>
     </g>
     <g id="text_38">
      <!-- h2_matmul2 -->
      <g transform="translate(581.76 129.330129) scale(0.1 -0.1)">
       <use xlink:href="#DejaVuSans-68"/>
       <use xlink:href="#DejaVuSans-32" transform="translate(63.378906 0)"/>
       <use xlink:href="#DejaVuSans-5f" transform="translate(127.001953 0)"/>
       <use xlink:href="#DejaVuSans-6d" transform="translate(177.001953 0)"/>
       <use xlink:href="#DejaVuSans-61" transform="translate(274.414062 0)"/>
       <use xlink:href="#DejaVuSans-74" transform="translate(335.693359 0)"/>
       <use xlink:href="#DejaVuSans-6d" transform="translate(374.902344 0)"/>
       <use xlink:href="#DejaVuSans-75" transform="translate(472.314453 0)"/>
       <use xlink:href="#DejaVuSans-6c" transform="translate(535.693359 0)"/>
       <use xlink:href="#DejaVuSans-32" transform="translate(563.476562 0)"/>
      </g>
     </g>
    </g>
    <g id="ytick_13">
     <g id="line2d_26">
      <g>
       <use xlink:href="#m988ed385c3" x="651.467812" y="172.566612" style="stroke: #000000; stroke-width: 0.8"/>
      </g>
     </g>
     <g id="text_39">
      <!-- qkv -->
      <g transform="translate(626.41 176.36583) scale(0.1 -0.1)">
       <use xlink:href="#DejaVuSans-71"/>
       <use xlink:href="#DejaVuSans-6b" transform="translate(63.476562 0)"/>
       <use xlink:href="#DejaVuSans-76" transform="translate(121.386719 0)"/>
      </g>
     </g>
    </g>
    <g id="ytick_14">
     <g id="line2d_27">
      <g>
       <use xlink:href="#m988ed385c3" x="651.467812" y="219.602313" style="stroke: #000000; stroke-width: 0.8"/>
      </g>
     </g>
     <g id="text_40">
      <!-- h_matmul0 -->
      <g transform="translate(588.1225 223.401532) scale(0.1 -0.1)">
       <use xlink:href="#DejaVuSans-68"/>
       <use xlink:href="#DejaVuSans-5f" transform="translate(63.378906 0)"/>
       <use xlink:href="#DejaVuSans-6d" transform="translate(113.378906 0)"/>
       <use xlink:href="#DejaVuSans-61" transform="translate(210.791016 0)"/>
       <use xlink:href="#DejaVuSans-74" transform="translate(272.070312 0)"/>
       <use xlink:href="#DejaVuSans-6d" transform="translate(311.279297 0)"/>
       <use xlink:href="#DejaVuSans-75" transform="translate(408.691406 0)"/>
       <use xlink:href="#DejaVuSans-6c" transform="translate(472.070312 0)"/>
       <use xlink:href="#DejaVuSans-30" transform="translate(499.853516 0)"/>
      </g>
     </g>
    </g>
    <g id="ytick_15">
     <g id="line2d_28">
      <g>
       <use xlink:href="#m988ed385c3" x="651.467812" y="266.638014" style="stroke: #000000; stroke-width: 0.8"/>
      </g>
     </g>
     <g id="text_41">
      <!-- q_mul_k -->
      <g transform="translate(603.4725 270.437233) scale(0.1 -0.1)">
       <use xlink:href="#DejaVuSans-71"/>
       <use xlink:href="#DejaVuSans-5f" transform="translate(63.476562 0)"/>
       <use xlink:href="#DejaVuSans-6d" transform="translate(113.476562 0)"/>
       <use xlink:href="#DejaVuSans-75" transform="translate(210.888672 0)"/>
       <use xlink:href="#DejaVuSans-6c" transform="translate(274.267578 0)"/>
       <use xlink:href="#DejaVuSans-5f" transform="translate(302.050781 0)"/>
       <use xlink:href="#DejaVuSans-6b" transform="translate(352.050781 0)"/>
      </g>
     </g>
    </g>
    <g id="ytick_16">
     <g id="line2d_29">
      <g>
       <use xlink:href="#m988ed385c3" x="651.467812" y="313.673716" style="stroke: #000000; stroke-width: 0.8"/>
      </g>
     </g>
     <g id="text_42">
      <!-- a_mul_v -->
      <g transform="translate(603.564687 317.472934) scale(0.1 -0.1)">
       <use xlink:href="#DejaVuSans-61"/>
       <use xlink:href="#DejaVuSans-5f" transform="translate(61.279297 0)"/>
       <use xlink:href="#DejaVuSans-6d" transform="translate(111.279297 0)"/>
       <use xlink:href="#DejaVuSans-75" transform="translate(208.691406 0)"/>
       <use xlink:href="#DejaVuSans-6c" transform="translate(272.070312 0)"/>
       <use xlink:href="#DejaVuSans-5f" transform="translate(299.853516 0)"/>
       <use xlink:href="#DejaVuSans-76" transform="translate(349.853516 0)"/>
      </g>
     </g>
    </g>
    <g id="ytick_17">
     <g id="line2d_30">
      <g>
       <use xlink:href="#m988ed385c3" x="651.467812" y="360.709417" style="stroke: #000000; stroke-width: 0.8"/>
      </g>
     </g>
     <g id="text_43">
      <!-- softmax -->
      <g transform="translate(604.086562 364.508636) scale(0.1 -0.1)">
       <use xlink:href="#DejaVuSans-73"/>
       <use xlink:href="#DejaVuSans-6f" transform="translate(52.099609 0)"/>
       <use xlink:href="#DejaVuSans-66" transform="translate(113.28125 0)"/>
       <use xlink:href="#DejaVuSans-74" transform="translate(146.736328 0)"/>
       <use xlink:href="#DejaVuSans-6d" transform="translate(185.945312 0)"/>
       <use xlink:href="#DejaVuSans-61" transform="translate(283.357422 0)"/>
       <use xlink:href="#DejaVuSans-78" transform="translate(344.636719 0)"/>
      </g>
     </g>
    </g>
    <g id="ytick_18">
     <g id="line2d_31">
      <g>
       <use xlink:href="#m988ed385c3" x="651.467812" y="407.745118" style="stroke: #000000; stroke-width: 0.8"/>
      </g>
     </g>
     <g id="text_44">
      <!-- gelu -->
      <g transform="translate(622.850625 411.544337) scale(0.1 -0.1)">
       <use xlink:href="#DejaVuSans-67"/>
       <use xlink:href="#DejaVuSans-65" transform="translate(63.476562 0)"/>
       <use xlink:href="#DejaVuSans-6c" transform="translate(125 0)"/>
       <use xlink:href="#DejaVuSans-75" transform="translate(152.783203 0)"/>
      </g>
     </g>
    </g>
    <g id="ytick_19">
     <g id="line2d_32">
      <g>
       <use xlink:href="#m988ed385c3" x="651.467812" y="454.78082" style="stroke: #000000; stroke-width: 0.8"/>
      </g>
     </g>
     <g id="text_45">
      <!-- layernorm0 -->
      <g transform="translate(587.058437 458.580039) scale(0.1 -0.1)">
       <use xlink:href="#DejaVuSans-6c"/>
       <use xlink:href="#DejaVuSans-61" transform="translate(27.783203 0)"/>
       <use xlink:href="#DejaVuSans-79" transform="translate(89.0625 0)"/>
       <use xlink:href="#DejaVuSans-65" transform="translate(148.242188 0)"/>
       <use xlink:href="#DejaVuSans-72" transform="translate(209.765625 0)"/>
       <use xlink:href="#DejaVuSans-6e" transform="translate(249.128906 0)"/>
       <use xlink:href="#DejaVuSans-6f" transform="translate(312.507812 0)"/>
       <use xlink:href="#DejaVuSans-72" transform="translate(373.689453 0)"/>
       <use xlink:href="#DejaVuSans-6d" transform="translate(413.052734 0)"/>
       <use xlink:href="#DejaVuSans-30" transform="translate(510.464844 0)"/>
      </g>
     </g>
    </g>
    <g id="ytick_20">
     <g id="line2d_33">
      <g>
       <use xlink:href="#m988ed385c3" x="651.467812" y="501.816521" style="stroke: #000000; stroke-width: 0.8"/>
      </g>
     </g>
     <g id="text_46">
      <!-- layernorm1 -->
      <g transform="translate(587.058437 505.61574) scale(0.1 -0.1)">
       <use xlink:href="#DejaVuSans-6c"/>
       <use xlink:href="#DejaVuSans-61" transform="translate(27.783203 0)"/>
       <use xlink:href="#DejaVuSans-79" transform="translate(89.0625 0)"/>
       <use xlink:href="#DejaVuSans-65" transform="translate(148.242188 0)"/>
       <use xlink:href="#DejaVuSans-72" transform="translate(209.765625 0)"/>
       <use xlink:href="#DejaVuSans-6e" transform="translate(249.128906 0)"/>
       <use xlink:href="#DejaVuSans-6f" transform="translate(312.507812 0)"/>
       <use xlink:href="#DejaVuSans-72" transform="translate(373.689453 0)"/>
       <use xlink:href="#DejaVuSans-6d" transform="translate(413.052734 0)"/>
       <use xlink:href="#DejaVuSans-31" transform="translate(510.464844 0)"/>
      </g>
     </g>
    </g>
   </g>
   <g id="patch_48">
    <path d="M 651.467812 542.64351 
L 651.467812 37.66822 
" style="fill: none; stroke: #000000; stroke-width: 0.8; stroke-linejoin: miter; stroke-linecap: square"/>
   </g>
   <g id="patch_49">
    <path d="M 1148.99976 542.64351 
L 1148.99976 37.66822 
" style="fill: none; stroke: #000000; stroke-width: 0.8; stroke-linejoin: miter; stroke-linecap: square"/>
   </g>
   <g id="patch_50">
    <path d="M 651.467812 542.64351 
L 1148.99976 542.64351 
" style="fill: none; stroke: #000000; stroke-width: 0.8; stroke-linejoin: miter; stroke-linecap: square"/>
   </g>
   <g id="patch_51">
    <path d="M 651.467812 37.66822 
L 1148.99976 37.66822 
" style="fill: none; stroke: #000000; stroke-width: 0.8; stroke-linejoin: miter; stroke-linecap: square"/>
   </g>
   <g id="text_47">
    <!-- 89.6% -->
    <g transform="translate(705.200055 89.639492) scale(0.08 -0.08)">
     <use xlink:href="#DejaVuSans-38"/>
     <use xlink:href="#DejaVuSans-39" transform="translate(63.623047 0)"/>
     <use xlink:href="#DejaVuSans-2e" transform="translate(127.246094 0)"/>
     <use xlink:href="#DejaVuSans-36" transform="translate(159.033203 0)"/>
     <use xlink:href="#DejaVuSans-25" transform="translate(222.65625 0)"/>
    </g>
   </g>
   <g id="text_48">
    <!-- 54.0% -->
    <g transform="translate(679.689854 136.675193) scale(0.08 -0.08)">
     <use xlink:href="#DejaVuSans-35"/>
     <use xlink:href="#DejaVuSans-34" transform="translate(63.623047 0)"/>
     <use xlink:href="#DejaVuSans-2e" transform="translate(127.246094 0)"/>
     <use xlink:href="#DejaVuSans-30" transform="translate(159.033203 0)"/>
     <use xlink:href="#DejaVuSans-25" transform="translate(222.65625 0)"/>
    </g>
   </g>
   <g id="text_49">
    <!-- 89.8% -->
    <g transform="translate(723.352874 183.710895) scale(0.08 -0.08)">
     <use xlink:href="#DejaVuSans-38"/>
     <use xlink:href="#DejaVuSans-39" transform="translate(63.623047 0)"/>
     <use xlink:href="#DejaVuSans-2e" transform="translate(127.246094 0)"/>
     <use xlink:href="#DejaVuSans-38" transform="translate(159.033203 0)"/>
     <use xlink:href="#DejaVuSans-25" transform="translate(222.65625 0)"/>
    </g>
   </g>
   <g id="text_50">
    <!-- 62.9% -->
    <g transform="translate(783.264844 230.746596) scale(0.08 -0.08)">
     <use xlink:href="#DejaVuSans-36"/>
     <use xlink:href="#DejaVuSans-32" transform="translate(63.623047 0)"/>
     <use xlink:href="#DejaVuSans-2e" transform="translate(127.246094 0)"/>
     <use xlink:href="#DejaVuSans-39" transform="translate(159.033203 0)"/>
     <use xlink:href="#DejaVuSans-25" transform="translate(222.65625 0)"/>
    </g>
   </g>
   <g id="text_51">
    <!-- 72.7% -->
    <g transform="translate(967.665968 277.782298) scale(0.08 -0.08)">
     <defs>
      <path id="DejaVuSans-37" d="M 525 4666 
L 3525 4666 
L 3525 4397 
L 1831 0 
L 1172 0 
L 2766 4134 
L 525 4134 
L 525 4666 
z
" transform="scale(0.015625)"/>
     </defs>
     <use xlink:href="#DejaVuSans-37"/>
     <use xlink:href="#DejaVuSans-32" transform="translate(63.623047 0)"/>
     <use xlink:href="#DejaVuSans-2e" transform="translate(127.246094 0)"/>
     <use xlink:href="#DejaVuSans-37" transform="translate(159.033203 0)"/>
     <use xlink:href="#DejaVuSans-25" transform="translate(222.65625 0)"/>
    </g>
   </g>
   <g id="text_52">
    <!-- 96.5% -->
    <g transform="translate(1048.994312 324.817999) scale(0.08 -0.08)">
     <use xlink:href="#DejaVuSans-39"/>
     <use xlink:href="#DejaVuSans-36" transform="translate(63.623047 0)"/>
     <use xlink:href="#DejaVuSans-2e" transform="translate(127.246094 0)"/>
     <use xlink:href="#DejaVuSans-35" transform="translate(159.033203 0)"/>
     <use xlink:href="#DejaVuSans-25" transform="translate(222.65625 0)"/>
    </g>
   </g>
   <g id="text_53">
    <!-- N/A -->
    <g transform="translate(1130.046162 371.8537) scale(0.08 -0.08)">
     <defs>
      <path id="DejaVuSans-4e" d="M 628 4666 
L 1478 4666 
L 3547 763 
L 3547 4666 
L 4159 4666 
L 4159 0 
L 3309 0 
L 1241 3903 
L 1241 0 
L 628 0 
L 628 4666 
z
" transform="scale(0.015625)"/>
      <path id="DejaVuSans-41" d="M 2188 4044 
L 1331 1722 
L 3047 1722 
L 2188 4044 
z
M 1831 4666 
L 2547 4666 
L 4325 0 
L 3669 0 
L 3244 1197 
L 1141 1197 
L 716 0 
L 50 0 
L 1831 4666 
z
" transform="scale(0.015625)"/>
     </defs>
     <use xlink:href="#DejaVuSans-4e"/>
     <use xlink:href="#DejaVuSans-2f" transform="translate(74.804688 0)"/>
     <use xlink:href="#DejaVuSans-41" transform="translate(108.496094 0)"/>
    </g>
   </g>
   <g id="text_54">
    <!-- N/A -->
    <g transform="translate(1130.046162 418.889402) scale(0.08 -0.08)">
     <use xlink:href="#DejaVuSans-4e"/>
     <use xlink:href="#DejaVuSans-2f" transform="translate(74.804688 0)"/>
     <use xlink:href="#DejaVuSans-41" transform="translate(108.496094 0)"/>
    </g>
   </g>
   <g id="text_55">
    <!-- N/A -->
    <g transform="translate(1130.046162 465.925103) scale(0.08 -0.08)">
     <use xlink:href="#DejaVuSans-4e"/>
     <use xlink:href="#DejaVuSans-2f" transform="translate(74.804688 0)"/>
     <use xlink:href="#DejaVuSans-41" transform="translate(108.496094 0)"/>
    </g>
   </g>
   <g id="text_56">
    <!-- N/A -->
    <g transform="translate(1130.046162 512.960804) scale(0.08 -0.08)">
     <use xlink:href="#DejaVuSans-4e"/>
     <use xlink:href="#DejaVuSans-2f" transform="translate(74.804688 0)"/>
     <use xlink:href="#DejaVuSans-41" transform="translate(108.496094 0)"/>
    </g>
   </g>
   <g id="text_57">
    <!-- Decode component throughput -->
    <g transform="translate(806.157536 31.66822) scale(0.12 -0.12)">
     <defs>
      <path id="DejaVuSans-44" d="M 1259 4147 
L 1259 519 
L 2022 519 
Q 2988 519 3436 956 
Q 3884 1394 3884 2338 
Q 3884 3275 3436 3711 
Q 2988 4147 2022 4147 
L 1259 4147 
z
M 628 4666 
L 1925 4666 
Q 3281 4666 3915 4102 
Q 4550 3538 4550 2338 
Q 4550 1131 3912 565 
Q 3275 0 1925 0 
L 628 0 
L 628 4666 
z
" transform="scale(0.015625)"/>
      <path id="DejaVuSans-64" d="M 2906 2969 
L 2906 4863 
L 3481 4863 
L 3481 0 
L 2906 0 
L 2906 525 
Q 2725 213 2448 61 
Q 2172 -91 1784 -91 
Q 1150 -91 751 415 
Q 353 922 353 1747 
Q 353 2572 751 3078 
Q 1150 3584 1784 3584 
Q 2172 3584 2448 3432 
Q 2725 3281 2906 2969 
z
M 947 1747 
Q 947 1113 1208 752 
Q 1469 391 1925 391 
Q 2381 391 2643 752 
Q 2906 1113 2906 1747 
Q 2906 2381 2643 2742 
Q 2381 3103 1925 3103 
Q 1469 3103 1208 2742 
Q 947 2381 947 1747 
z
" transform="scale(0.015625)"/>
     </defs>
     <use xlink:href="#DejaVuSans-44"/>
     <use xlink:href="#DejaVuSans-65" transform="translate(77.001953 0)"/>
     <use xlink:href="#DejaVuSans-63" transform="translate(138.525391 0)"/>
     <use xlink:href="#DejaVuSans-6f" transform="translate(193.505859 0)"/>
     <use xlink:href="#DejaVuSans-64" transform="translate(254.6875 0)"/>
     <use xlink:href="#DejaVuSans-65" transform="translate(318.164062 0)"/>
     <use xlink:href="#DejaVuSans-20" transform="translate(379.6875 0)"/>
     <use xlink:href="#DejaVuSans-63" transform="translate(411.474609 0)"/>
     <use xlink:href="#DejaVuSans-6f" transform="translate(466.455078 0)"/>
     <use xlink:href="#DejaVuSans-6d" transform="translate(527.636719 0)"/>
     <use xlink:href="#DejaVuSans-70" transform="translate(625.048828 0)"/>
     <use xlink:href="#DejaVuSans-6f" transform="translate(688.525391 0)"/>
     <use xlink:href="#DejaVuSans-6e" transform="translate(749.707031 0)"/>
     <use xlink:href="#DejaVuSans-65" transform="translate(813.085938 0)"/>
     <use xlink:href="#DejaVuSans-6e" transform="translate(874.609375 0)"/>
     <use xlink:href="#DejaVuSans-74" transform="translate(937.988281 0)"/>
     <use xlink:href="#DejaVuSans-20" transform="translate(977.197266 0)"/>
     <use xlink:href="#DejaVuSans-74" transform="translate(1008.984375 0)"/>
     <use xlink:href="#DejaVuSans-68" transform="translate(1048.193359 0)"/>
     <use xlink:href="#DejaVuSans-72" transform="translate(1111.572266 0)"/>
     <use xlink:href="#DejaVuSans-6f" transform="translate(1150.435547 0)"/>
     <use xlink:href="#DejaVuSans-75" transform="translate(1211.617188 0)"/>
     <use xlink:href="#DejaVuSans-67" transform="translate(1274.996094 0)"/>
     <use xlink:href="#DejaVuSans-68" transform="translate(1338.472656 0)"/>
     <use xlink:href="#DejaVuSans-70" transform="translate(1401.851562 0)"/>
     <use xlink:href="#DejaVuSans-75" transform="translate(1465.328125 0)"/>
     <use xlink:href="#DejaVuSans-74" transform="translate(1528.707031 0)"/>
    </g>
   </g>
   <g id="legend_1">
    <g id="patch_52">
     <path d="M 975.129447 537.64351 
L 1141.99976 537.64351 
Q 1143.99976 537.64351 1143.99976 535.64351 
L 1143.99976 507.28726 
Q 1143.99976 505.28726 1141.99976 505.28726 
L 975.129447 505.28726 
Q 973.129447 505.28726 973.129447 507.28726 
L 973.129447 535.64351 
Q 973.129447 537.64351 975.129447 537.64351 
z
" style="fill: #ffffff; opacity: 0.8; stroke: #cccccc; stroke-linejoin: miter"/>
    </g>
    <g id="patch_53">
     <path d="M 977.129447 516.885697 
L 997.129447 516.885697 
L 997.129447 509.885697 
L 977.129447 509.885697 
z
" style="fill: #4c78a8"/>
    </g>
    <g id="text_58">
     <!-- GA100 HBM2 2048 GB/s -->
     <g transform="translate(1005.129447 516.885697) scale(0.1 -0.1)">
      <defs>
       <path id="DejaVuSans-47" d="M 3809 666 
L 3809 1919 
L 2778 1919 
L 2778 2438 
L 4434 2438 
L 4434 434 
Q 4069 175 3628 42 
Q 3188 -91 2688 -91 
Q 1594 -91 976 548 
Q 359 1188 359 2328 
Q 359 3472 976 4111 
Q 1594 4750 2688 4750 
Q 3144 4750 3555 4637 
Q 3966 4525 4313 4306 
L 4313 3634 
Q 3963 3931 3569 4081 
Q 3175 4231 2741 4231 
Q 1884 4231 1454 3753 
Q 1025 3275 1025 2328 
Q 1025 1384 1454 906 
Q 1884 428 2741 428 
Q 3075 428 3337 486 
Q 3600 544 3809 666 
z
" transform="scale(0.015625)"/>
       <path id="DejaVuSans-48" d="M 628 4666 
L 1259 4666 
L 1259 2753 
L 3553 2753 
L 3553 4666 
L 4184 4666 
L 4184 0 
L 3553 0 
L 3553 2222 
L 1259 2222 
L 1259 0 
L 628 0 
L 628 4666 
z
" transform="scale(0.015625)"/>
       <path id="DejaVuSans-42" d="M 1259 2228 
L 1259 519 
L 2272 519 
Q 2781 519 3026 730 
Q 3272 941 3272 1375 
Q 3272 1813 3026 2020 
Q 2781 2228 2272 2228 
L 1259 2228 
z
M 1259 4147 
L 1259 2741 
L 2194 2741 
Q 2656 2741 2882 2914 
Q 3109 3088 3109 3444 
Q 3109 3797 2882 3972 
Q 2656 4147 2194 4147 
L 1259 4147 
z
M 628 4666 
L 2241 4666 
Q 2963 4666 3353 4366 
Q 3744 4066 3744 3513 
Q 3744 3084 3544 2831 
Q 3344 2578 2956 2516 
Q 3422 2416 3680 2098 
Q 3938 1781 3938 1306 
Q 3938 681 3513 340 
Q 3088 0 2303 0 
L 628 0 
L 628 4666 
z
" transform="scale(0.015625)"/>
       <path id="DejaVuSans-4d" d="M 628 4666 
L 1569 4666 
L 2759 1491 
L 3956 4666 
L 4897 4666 
L 4897 0 
L 4281 0 
L 4281 4097 
L 3078 897 
L 2444 897 
L 1241 4097 
L 1241 0 
L 628 0 
L 628 4666 
z
" transform="scale(0.015625)"/>
      </defs>
      <use xlink:href="#DejaVuSans-47"/>
      <use xlink:href="#DejaVuSans-41" transform="translate(77.490234 0)"/>
      <use xlink:href="#DejaVuSans-31" transform="translate(145.898438 0)"/>
      <use xlink:href="#DejaVuSans-30" transform="translate(209.521484 0)"/>
      <use xlink:href="#DejaVuSans-30" transform="translate(273.144531 0)"/>
      <use xlink:href="#DejaVuSans-20" transform="translate(336.767578 0)"/>
      <use xlink:href="#DejaVuSans-48" transform="translate(368.554688 0)"/>
      <use xlink:href="#DejaVuSans-42" transform="translate(443.75 0)"/>
      <use xlink:href="#DejaVuSans-4d" transform="translate(512.353516 0)"/>
      <use xlink:href="#DejaVuSans-32" transform="translate(598.632812 0)"/>
      <use xlink:href="#DejaVuSans-20" transform="translate(662.255859 0)"/>
      <use xlink:href="#DejaVuSans-32" transform="translate(694.042969 0)"/>
      <use xlink:href="#DejaVuSans-30" transform="translate(757.666016 0)"/>
      <use xlink:href="#DejaVuSans-34" transform="translate(821.289062 0)"/>
      <use xlink:href="#DejaVuSans-38" transform="translate(884.912109 0)"/>
      <use xlink:href="#DejaVuSans-20" transform="translate(948.535156 0)"/>
      <use xlink:href="#DejaVuSans-47" transform="translate(980.322266 0)"/>
      <use xlink:href="#DejaVuSans-42" transform="translate(1057.8125 0)"/>
      <use xlink:href="#DejaVuSans-2f" transform="translate(1126.416016 0)"/>
      <use xlink:href="#DejaVuSans-73" transform="translate(1160.107422 0)"/>
     </g>
    </g>
    <g id="patch_54">
     <path d="M 977.129447 531.563823 
L 997.129447 531.563823 
L 997.129447 524.563823 
L 977.129447 524.563823 
z
" style="fill: #f58518"/>
    </g>
    <g id="text_59">
     <!-- A100-LPDDR5X 819.2 GB/s -->
     <g transform="translate(1005.129447 531.563823) scale(0.1 -0.1)">
      <defs>
       <path id="DejaVuSans-2d" d="M 313 2009 
L 1997 2009 
L 1997 1497 
L 313 1497 
L 313 2009 
z
" transform="scale(0.015625)"/>
       <path id="DejaVuSans-4c" d="M 628 4666 
L 1259 4666 
L 1259 531 
L 3531 531 
L 3531 0 
L 628 0 
L 628 4666 
z
" transform="scale(0.015625)"/>
       <path id="DejaVuSans-52" d="M 2841 2188 
Q 3044 2119 3236 1894 
Q 3428 1669 3622 1275 
L 4263 0 
L 3584 0 
L 2988 1197 
Q 2756 1666 2539 1819 
Q 2322 1972 1947 1972 
L 1259 1972 
L 1259 0 
L 628 0 
L 628 4666 
L 2053 4666 
Q 2853 4666 3247 4331 
Q 3641 3997 3641 3322 
Q 3641 2881 3436 2590 
Q 3231 2300 2841 2188 
z
M 1259 4147 
L 1259 2491 
L 2053 2491 
Q 2509 2491 2742 2702 
Q 2975 2913 2975 3322 
Q 2975 3731 2742 3939 
Q 2509 4147 2053 4147 
L 1259 4147 
z
" transform="scale(0.015625)"/>
       <path id="DejaVuSans-58" d="M 403 4666 
L 1081 4666 
L 2241 2931 
L 3406 4666 
L 4084 4666 
L 2584 2425 
L 4184 0 
L 3506 0 
L 2194 1984 
L 872 0 
L 191 0 
L 1856 2491 
L 403 4666 
z
" transform="scale(0.015625)"/>
      </defs>
      <use xlink:href="#DejaVuSans-41"/>
      <use xlink:href="#DejaVuSans-31" transform="translate(68.408203 0)"/>
      <use xlink:href="#DejaVuSans-30" transform="translate(132.03125 0)"/>
      <use xlink:href="#DejaVuSans-30" transform="translate(195.654297 0)"/>
      <use xlink:href="#DejaVuSans-2d" transform="translate(259.277344 0)"/>
      <use xlink:href="#DejaVuSans-4c" transform="translate(295.361328 0)"/>
      <use xlink:href="#DejaVuSans-50" transform="translate(351.074219 0)"/>
      <use xlink:href="#DejaVuSans-44" transform="translate(411.376953 0)"/>
      <use xlink:href="#DejaVuSans-44" transform="translate(488.378906 0)"/>
      <use xlink:href="#DejaVuSans-52" transform="translate(565.380859 0)"/>
      <use xlink:href="#DejaVuSans-35" transform="translate(634.863281 0)"/>
      <use xlink:href="#DejaVuSans-58" transform="translate(698.486328 0)"/>
      <use xlink:href="#DejaVuSans-20" transform="translate(766.992188 0)"/>
      <use xlink:href="#DejaVuSans-38" transform="translate(798.779297 0)"/>
      <use xlink:href="#DejaVuSans-31" transform="translate(862.402344 0)"/>
      <use xlink:href="#DejaVuSans-39" transform="translate(926.025391 0)"/>
      <use xlink:href="#DejaVuSans-2e" transform="translate(989.648438 0)"/>
      <use xlink:href="#DejaVuSans-32" transform="translate(1021.435547 0)"/>
      <use xlink:href="#DejaVuSans-20" transform="translate(1085.058594 0)"/>
      <use xlink:href="#DejaVuSans-47" transform="translate(1116.845703 0)"/>
      <use xlink:href="#DejaVuSans-42" transform="translate(1194.335938 0)"/>
      <use xlink:href="#DejaVuSans-2f" transform="translate(1262.939453 0)"/>
      <use xlink:href="#DejaVuSans-73" transform="translate(1296.630859 0)"/>
     </g>
    </g>
   </g>
  </g>
  <g id="text_60">
   <!-- Bandwidth sensitivity: GA100 HBM2 vs A100-LPDDR5X -->
   <g transform="translate(384.501875 13.638052) scale(0.14 -0.14)">
    <defs>
     <path id="DejaVuSans-77" d="M 269 3500 
L 844 3500 
L 1563 769 
L 2278 3500 
L 2956 3500 
L 3675 769 
L 4391 3500 
L 4966 3500 
L 4050 0 
L 3372 0 
L 2619 2869 
L 1863 0 
L 1184 0 
L 269 3500 
z
" transform="scale(0.015625)"/>
     <path id="DejaVuSans-3a" d="M 750 794 
L 1409 794 
L 1409 0 
L 750 0 
L 750 794 
z
M 750 3309 
L 1409 3309 
L 1409 2516 
L 750 2516 
L 750 3309 
z
" transform="scale(0.015625)"/>
    </defs>
    <use xlink:href="#DejaVuSans-42"/>
    <use xlink:href="#DejaVuSans-61" transform="translate(68.603516 0)"/>
    <use xlink:href="#DejaVuSans-6e" transform="translate(129.882812 0)"/>
    <use xlink:href="#DejaVuSans-64" transform="translate(193.261719 0)"/>
    <use xlink:href="#DejaVuSans-77" transform="translate(256.738281 0)"/>
    <use xlink:href="#DejaVuSans-69" transform="translate(338.525391 0)"/>
    <use xlink:href="#DejaVuSans-64" transform="translate(366.308594 0)"/>
    <use xlink:href="#DejaVuSans-74" transform="translate(429.785156 0)"/>
    <use xlink:href="#DejaVuSans-68" transform="translate(468.994141 0)"/>
    <use xlink:href="#DejaVuSans-20" transform="translate(532.373047 0)"/>
    <use xlink:href="#DejaVuSans-73" transform="translate(564.160156 0)"/>
    <use xlink:href="#DejaVuSans-65" transform="translate(616.259766 0)"/>
    <use xlink:href="#DejaVuSans-6e" transform="translate(677.783203 0)"/>
    <use xlink:href="#DejaVuSans-73" transform="translate(741.162109 0)"/>
    <use xlink:href="#DejaVuSans-69" transform="translate(793.261719 0)"/>
    <use xlink:href="#DejaVuSans-74" transform="translate(821.044922 0)"/>
    <use xlink:href="#DejaVuSans-69" transform="translate(860.253906 0)"/>
    <use xlink:href="#DejaVuSans-76" transform="translate(888.037109 0)"/>
    <use xlink:href="#DejaVuSans-69" transform="translate(947.216797 0)"/>
    <use xlink:href="#DejaVuSans-74" transform="translate(975 0)"/>
    <use xlink:href="#DejaVuSans-79" transform="translate(1014.208984 0)"/>
    <use xlink:href="#DejaVuSans-3a" transform="translate(1066.138672 0)"/>
    <use xlink:href="#DejaVuSans-20" transform="translate(1099.830078 0)"/>
    <use xlink:href="#DejaVuSans-47" transform="translate(1131.617188 0)"/>
    <use xlink:href="#DejaVuSans-41" transform="translate(1209.107422 0)"/>
    <use xlink:href="#DejaVuSans-31" transform="translate(1277.515625 0)"/>
    <use xlink:href="#DejaVuSans-30" transform="translate(1341.138672 0)"/>
    <use xlink:href="#DejaVuSans-30" transform="translate(1404.761719 0)"/>
    <use xlink:href="#DejaVuSans-20" transform="translate(1468.384766 0)"/>
    <use xlink:href="#DejaVuSans-48" transform="translate(1500.171875 0)"/>
    <use xlink:href="#DejaVuSans-42" transform="translate(1575.367188 0)"/>
    <use xlink:href="#DejaVuSans-4d" transform="translate(1643.970703 0)"/>
    <use xlink:href="#DejaVuSans-32" transform="translate(1730.25 0)"/>
    <use xlink:href="#DejaVuSans-20" transform="translate(1793.873047 0)"/>
    <use xlink:href="#DejaVuSans-76" transform="translate(1825.660156 0)"/>
    <use xlink:href="#DejaVuSans-73" transform="translate(1884.839844 0)"/>
    <use xlink:href="#DejaVuSans-20" transform="translate(1936.939453 0)"/>
    <use xlink:href="#DejaVuSans-41" transform="translate(1968.726562 0)"/>
    <use xlink:href="#DejaVuSans-31" transform="translate(2037.134766 0)"/>
    <use xlink:href="#DejaVuSans-30" transform="translate(2100.757812 0)"/>
    <use xlink:href="#DejaVuSans-30" transform="translate(2164.380859 0)"/>
    <use xlink:href="#DejaVuSans-2d" transform="translate(2228.003906 0)"/>
    <use xlink:href="#DejaVuSans-4c" transform="translate(2264.087891 0)"/>
    <use xlink:href="#DejaVuSans-50" transform="translate(2319.800781 0)"/>
    <use xlink:href="#DejaVuSans-44" transform="translate(2380.103516 0)"/>
    <use xlink:href="#DejaVuSans-44" transform="translate(2457.105469 0)"/>
    <use xlink:href="#DejaVuSans-52" transform="translate(2534.107422 0)"/>
    <use xlink:href="#DejaVuSans-35" transform="translate(2603.589844 0)"/>
    <use xlink:href="#DejaVuSans-58" transform="translate(2667.212891 0)"/>
   </g>
  </g>
 </g>
 <defs>
  <clipPath id="p334a9ffa0b">
   <rect x="72.708053" y="37.66822" width="497.531947" height="504.97529"/>
  </clipPath>
  <clipPath id="pffacb71d33">
   <rect x="651.467812" y="37.66822" width="497.531948" height="504.97529"/>
  </clipPath>
 </defs>
</svg>
